<svg xmlns="http://www.w3.org/2000/svg" width="29.826" height="29.332" viewBox="0 0 29.826 29.332">
  <path id="Path_3879" data-name="Path 3879" d="M29.627,14.065,16.021.46A1.569,1.569,0,0,0,13.8.46L.2,14.065a.674.674,0,0,0,.477,1.151h3.6v1.4c0,3.875.017,7.75-.01,11.625-.005.759.182,1.116,1.014,1.087,1.48-.051,2.963-.052,4.443-.006.821.026,1.041-.316,1.029-1.082-.035-2.165-.01-4.331-.01-6.5,0-.749,0-1.5,0-2.283h8.352c0,.513,0,.925,0,1.336,0,2.469.019,4.939-.017,7.408-.012.818.235,1.166,1.106,1.129,1.4-.06,2.812-.06,4.215,0,.894.036,1.189-.262,1.178-1.173-.044-3.913-.019-7.826-.019-11.739,0-.366,0-.738,0-1.2H29.15a.674.674,0,0,0,.477-1.151" transform="translate(0 -0.001)" fill="#fff"/>
</svg>
