<svg id="Group_7533" data-name="Group 7533" xmlns="http://www.w3.org/2000/svg" xmlns:xlink="http://www.w3.org/1999/xlink" width="34.109" height="34.111" viewBox="0 0 34.109 34.111">
  <defs>
    <clipPath id="clip-path">
      <rect id="Rectangle_1548" data-name="Rectangle 1548" width="34.109" height="34.111" fill="#fff"/>
    </clipPath>
  </defs>
  <g id="Group_7533-2" data-name="Group 7533" clip-path="url(#clip-path)">
    <path id="Path_3881" data-name="Path 3881" d="M23.947,0H10.162A10.17,10.17,0,0,0,0,10.162V23.947A10.17,10.17,0,0,0,10.162,34.111H23.947A10.171,10.171,0,0,0,34.109,23.947V10.162A10.167,10.167,0,0,0,23.947,0M30.68,23.947a6.734,6.734,0,0,1-6.732,6.732H10.162a6.731,6.731,0,0,1-6.731-6.731V10.162a6.729,6.729,0,0,1,6.728-6.731H23.947a6.732,6.732,0,0,1,6.731,6.731Z" fill="#fff"/>
    <path id="Path_3882" data-name="Path 3882" d="M141.619,101.823a8.819,8.819,0,1,0,8.819,8.819,8.827,8.827,0,0,0-8.819-8.819m0,14.207a5.388,5.388,0,1,1,5.387-5.389,5.388,5.388,0,0,1-5.387,5.389m8.838-16.255a2.113,2.113,0,1,1-2.115,2.115,2.023,2.023,0,0,1,2.115-2.115" transform="translate(-124.564 -93.587)" fill="#fff"/>
  </g>
</svg>
