<svg id="Group_6896" data-name="Group 6896" xmlns="http://www.w3.org/2000/svg" xmlns:xlink="http://www.w3.org/1999/xlink" width="148.704" height="21.612" viewBox="0 0 148.704 21.612">
  <defs>
    <clipPath id="clip-path">
      <rect id="Rectangle_1200" data-name="Rectangle 1200" width="148.704" height="21.612" fill="#fff"/>
    </clipPath>
  </defs>
  <rect id="Rectangle_1199" data-name="Rectangle 1199" width="6.302" height="20.975" transform="translate(47.329 0.35)" fill="#fff"/>
  <g id="Group_6895" data-name="Group 6895">
    <g id="Group_6894" data-name="Group 6894" clip-path="url(#clip-path)">
      <path id="Path_2534" data-name="Path 2534" d="M158.81,8.656c-.732-1.782-1.4-3.5-1.846-4.36-1.432-2.8-3.278-4.3-6.207-4.3s-4.774,1.5-6.206,4.3c-.446.859-1.114,2.578-1.846,4.36-1.432,3.438-2.546,5.506-4.711,6.079v6.875c5.857-.923,8.435-4.711,10.376-10.122.318-.891.7-1.942.923-2.546.446-1.178.764-1.878,1.464-1.878s1.019.7,1.464,1.878c.223.6.6,1.655.923,2.546,1.941,5.411,4.52,9.2,10.376,10.122V14.736c-2.164-.573-3.278-2.642-4.711-6.079" transform="translate(-118.578 0.001)" fill="#fff"/>
      <path id="Path_2535" data-name="Path 2535" d="M21.453,8.345V2.489H0V8.345H7.575V23.464h6.3V8.345Z" transform="translate(0 -2.139)" fill="#fff"/>
      <path id="Path_2536" data-name="Path 2536" d="M900.138.738V15c0,.414-.159.6-.382.6-.286,0-.541-.414-.955-1.305-1.146-2.483-2.387-5.252-3.66-7.7-1.687-3.246-3.183-6.143-7.257-6.143s-6.079,2.737-6.079,7.321V21.714h6.3V7.454c0-.414.159-.6.382-.6.287,0,.541.414.955,1.3,1.146,2.483,2.387,5.252,3.661,7.7C894.791,19.1,896.287,22,900.361,22s6.079-2.737,6.079-7.321V.738Z" transform="translate(-757.737 -0.388)" fill="#fff"/>
      <path id="Path_2537" data-name="Path 2537" d="M436.613,12.827c0,1.05-.191,1.91-.987,1.91-.923,0-1.528-1.751-2.928-5.379-.987-2.515-1.687-4.2-2.1-5.093a6.836,6.836,0,0,0-12.668,0c-.414.891-1.114,2.578-2.1,5.093-1.4,3.628-2.005,5.379-2.928,5.379-.8,0-.987-.859-.987-1.91V.35h-6.3V13.973c0,4.9,2.705,7.639,6.779,7.639,4.774,0,6.684-3.246,8.689-8.53.764-2.037,1.241-3.278,1.591-4.138.446-1.114.891-1.878,1.591-1.878s1.146.764,1.591,1.878c.35.859.828,2.1,1.591,4.138,2.005,5.284,3.915,8.53,8.689,8.53,4.074,0,6.78-2.737,6.78-7.639V.35h-6.3Z" transform="translate(-348.543 0)" fill="#fff"/>
      <path id="Path_2538" data-name="Path 2538" d="M704.226,8.656c-.732-1.782-1.4-3.5-1.846-4.36C700.948,1.5,699.1,0,696.173,0s-4.774,1.5-6.207,4.3c-.446.859-1.114,2.578-1.846,4.36-1.432,3.438-2.546,5.506-4.711,6.079v6.875c5.857-.923,8.435-4.711,10.376-10.122.318-.891.7-1.942.923-2.546.446-1.178.764-1.878,1.464-1.878s1.018.7,1.464,1.878c.223.6.6,1.655.923,2.546,1.942,5.411,4.52,9.2,10.376,10.122V14.736c-2.164-.573-3.278-2.642-4.711-6.079" transform="translate(-587.255 0.001)" fill="#fff"/>
    </g>
  </g>
</svg>
