<svg id="Group_7844" data-name="Group 7844" xmlns="http://www.w3.org/2000/svg" xmlns:xlink="http://www.w3.org/1999/xlink" width="289.362" height="281.353" viewBox="0 0 289.362 281.353">
  <defs>
    <clipPath id="clip-path">
      <path id="Path_4050" data-name="Path 4050" d="M122.215,52.951c-3.755,9.325-1.842,19.066-.336,30.8.783,6.115,22.752,2.439,22.752,2.439,3.515-4.308,6.14-11.793,10.609-22.017s-5.1-30.678-10.073-32.359a2.96,2.96,0,0,0-.945-.143c-5.627,0-18.465,12.49-22.006,21.277" transform="translate(-120.032 -31.674)" fill="none"/>
    </clipPath>
    <linearGradient id="linear-gradient" x1="-1.675" y1="4.929" x2="-1.659" y2="4.929" gradientUnits="objectBoundingBox">
      <stop offset="0" stop-color="#ffa300"/>
      <stop offset="0.461" stop-color="#ffb800"/>
      <stop offset="1" stop-color="#ffcd00"/>
    </linearGradient>
    <clipPath id="clip-path-2">
      <path id="Path_4051" data-name="Path 4051" d="M124.677,54.863c-3.163,9-3.08,16.012-.706,28.721,1.1,5.886,20.671,2.617,20.671,2.617,3.019-4.135,4.869-11.347,8.643-21.212s-4.764-30.032-9.146-31.734a2.187,2.187,0,0,0-.79-.139c-4.876,0-15.686,13.242-18.672,21.747" transform="translate(-122.241 -33.116)" fill="none"/>
    </clipPath>
    <linearGradient id="linear-gradient-2" x1="-1.774" y1="5.514" x2="-1.758" y2="5.514" gradientUnits="objectBoundingBox">
      <stop offset="0" stop-color="#ffdc54"/>
      <stop offset="0.1" stop-color="#ffda4a"/>
      <stop offset="0.705" stop-color="#ffd014"/>
      <stop offset="1" stop-color="#ffcd00"/>
    </linearGradient>
    <clipPath id="clip-path-3">
      <path id="Path_4053" data-name="Path 4053" d="M135.253,64.259c-3.041,5.386-2.076,12.517-1.213,22.112a47.634,47.634,0,0,0,4.176-15.125c.612-5.9.428-9.5-.712-9.5-.535,0-1.279.793-2.25,2.514" transform="translate(-133.181 -61.745)" fill="none"/>
    </clipPath>
    <linearGradient id="linear-gradient-3" x1="-12.509" y1="8.722" x2="-12.413" y2="8.722" gradientUnits="objectBoundingBox">
      <stop offset="0" stop-color="#f98409"/>
      <stop offset="0.667" stop-color="#fdb802"/>
      <stop offset="1" stop-color="#ffcd00"/>
    </linearGradient>
    <clipPath id="clip-path-4">
      <path id="Path_4054" data-name="Path 4054" d="M95.886,34.319c-5.193.755-11.757,19.226-10.878,29.241s7,17.83,13.657,27.609c3.472,5.1,21.389-8.135,21.389-8.135,1.18-5.434.13-13.295-.523-24.435C118.9,47.748,102,34.289,96.321,34.29a3,3,0,0,0-.435.029" transform="translate(-84.928 -34.29)" fill="none"/>
    </clipPath>
    <linearGradient id="linear-gradient-4" x1="-1.385" y1="3.569" x2="-1.367" y2="3.569" xlink:href="#linear-gradient"/>
    <clipPath id="clip-path-5">
      <path id="Path_4055" data-name="Path 4055" d="M95.622,36.069c-4.674.468-8.818,18.624-7.556,28.081s4.512,15.667,12.387,25.92c3.645,4.751,19.613-7.034,19.613-7.034.816-5.053-.8-12.32-1.911-22.825-1.088-10.338-17.315-24.154-22.3-24.154a2.282,2.282,0,0,0-.238.012" transform="translate(-87.837 -36.057)" fill="none"/>
    </clipPath>
    <linearGradient id="linear-gradient-5" x1="-1.553" y1="3.751" x2="-1.533" y2="3.751" xlink:href="#linear-gradient-2"/>
    <clipPath id="clip-path-6">
      <path id="Path_4057" data-name="Path 4057" d="M101.747,67.739c-.271,6.18,3.822,12.1,8.939,20.261a47.639,47.639,0,0,0-3.132-15.376c-1.976-5.139-3.665-8.2-4.71-8.2-.61,0-1,1.041-1.1,3.318" transform="translate(-101.734 -64.421)" fill="none"/>
    </clipPath>
    <linearGradient id="linear-gradient-6" x1="-3.629" y1="7.205" x2="-3.59" y2="7.205" xlink:href="#linear-gradient-3"/>
    <clipPath id="clip-path-7">
      <path id="Path_4058" data-name="Path 4058" d="M53.892,62.639c-4.074,3.31-.25,22.534,5.633,30.686S74.669,105.054,85.4,110.041c5.59,2.6,14.2-17.942,14.2-17.942-1.77-5.269-6.7-11.483-12.964-20.718C82.051,64.625,68.829,61.3,60.466,61.3c-3.067,0-5.481.448-6.574,1.336" transform="translate(-52.198 -61.303)" fill="none"/>
    </clipPath>
    <linearGradient id="linear-gradient-7" x1="-0.546" y1="3.227" x2="-0.532" y2="3.227" xlink:href="#linear-gradient"/>
    <clipPath id="clip-path-8">
      <path id="Path_4059" data-name="Path 4059" d="M54.56,64.278c-3.774,2.8,1.966,20.513,7.894,27.987s11.9,11.145,23.914,15.917C91.935,110.4,99.611,92.1,99.611,92.1c-1.889-4.759-7-10.172-13.331-18.626-4.9-6.54-18.929-10.136-26.786-10.135-2.3,0-4.078.309-4.935.943" transform="translate(-53.351 -63.335)" fill="none"/>
    </clipPath>
    <linearGradient id="linear-gradient-8" x1="-0.612" y1="3.371" x2="-0.598" y2="3.371" xlink:href="#linear-gradient-2"/>
    <clipPath id="clip-path-9">
      <path id="Path_4061" data-name="Path 4061" d="M76.038,88.344c2.932,5.446,9.479,8.434,18.054,12.823a47.618,47.618,0,0,0-10.566-11.6c-3.816-3-6.616-4.726-7.84-4.726-.972,0-.949,1.092.352,3.5" transform="translate(-75.004 -84.839)" fill="none"/>
    </clipPath>
    <linearGradient id="linear-gradient-9" x1="-1.956" y1="5.832" x2="-1.927" y2="5.832" xlink:href="#linear-gradient-3"/>
    <clipPath id="clip-path-10">
      <path id="Path_4062" data-name="Path 4062" d="M33.775,106.322c-2.167,4.782,9.839,20.277,18.743,24.942S71.3,135,83.131,134.669c6.165-.169,4.7-22.4,4.7-22.4-3.934-3.923-11.12-7.285-20.85-12.751a18.4,18.4,0,0,0-8.917-1.914c-10.212,0-22.656,5.119-24.286,8.713" transform="translate(-33.518 -97.609)" fill="none"/>
    </clipPath>
    <linearGradient id="linear-gradient-10" x1="-0.669" y1="3.013" x2="-0.65" y2="3.013" xlink:href="#linear-gradient"/>
    <clipPath id="clip-path-11">
      <path id="Path_4063" data-name="Path 4063" d="M35.1,107.492c-2.128,4.188,10.918,17.477,19.561,21.52s15.623,4.658,28.5,3.564c5.967-.506,4.665-20.308,4.665-20.308-3.814-3.417-10.806-5.975-20.244-10.714A19.7,19.7,0,0,0,58.9,99.892c-9.979,0-22.2,4.449-23.8,7.6" transform="translate(-34.874 -99.892)" fill="none"/>
    </clipPath>
    <linearGradient id="linear-gradient-11" x1="-0.801" y1="3.118" x2="-0.78" y2="3.118" xlink:href="#linear-gradient-2"/>
    <clipPath id="clip-path-12">
      <path id="Path_4065" data-name="Path 4065" d="M65.068,119.44c5.055,3.564,12.247,3.314,21.879,3.414a47.609,47.609,0,0,0-14.633-5.665,40.315,40.315,0,0,0-7.315-1c-2.8,0-3.119,1.008.069,3.251" transform="translate(-62.787 -116.189)" fill="none"/>
    </clipPath>
    <linearGradient id="linear-gradient-12" x1="-2.254" y1="10.903" x2="-2.217" y2="10.903" xlink:href="#linear-gradient-3"/>
    <clipPath id="clip-path-13">
      <path id="Path_4066" data-name="Path 4066" d="M27.8,149.331c-.273,5.243,16.56,15.285,26.553,16.379s18.853-3.379,29.747-8c5.675-2.407-3.8-22.564-3.8-22.564-5.1-2.218-13.012-2.724-24.065-4.261a12.187,12.187,0,0,0-1.668-.112c-11.024,0-26.5,13.574-26.763,18.56" transform="translate(-27.794 -130.771)" fill="none"/>
    </clipPath>
    <linearGradient id="linear-gradient-13" x1="-0.388" y1="3.579" x2="-0.373" y2="3.579" xlink:href="#linear-gradient"/>
    <clipPath id="clip-path-14">
      <path id="Path_4067" data-name="Path 4067" d="M29.463,149.934c-.454,4.676,16.543,12.288,26.065,12.9s16.248-1.366,27.84-7.086c5.371-2.65-3.069-20.61-3.069-20.61-4.8-1.79-12.241-1.619-22.759-2.586-.357-.033-.719-.049-1.091-.049-10.571,0-26.549,12.916-26.986,17.435" transform="translate(-29.454 -132.499)" fill="none"/>
    </clipPath>
    <linearGradient id="linear-gradient-14" x1="-0.435" y1="4.038" x2="-0.419" y2="4.038" xlink:href="#linear-gradient-2"/>
    <clipPath id="clip-path-15">
      <path id="Path_4069" data-name="Path 4069" d="M67.642,145.387c-8.589,1.479-11.937,3.271-5.925,4.742s12.614-1.385,21.618-4.81a42.922,42.922,0,0,0-7.591-.609,47.862,47.862,0,0,0-8.1.676" transform="translate(-58.667 -144.71)" fill="none"/>
    </clipPath>
    <linearGradient id="linear-gradient-15" x1="-1.763" y1="8.159" x2="-1.731" y2="8.159" xlink:href="#linear-gradient-3"/>
    <clipPath id="clip-path-16">
      <path id="Path_4070" data-name="Path 4070" d="M161.6,58.92c-8.028,6.051-11.412,15.385-16.174,26.217-2.48,5.641,18.236,13.822,18.236,13.822,5.233-1.88,11.34-6.937,20.445-13.394s11.449-28.915,8.055-32.918c-.923-1.09-3.013-1.57-5.728-1.57-7.261,0-18.994,3.437-24.834,7.841" transform="translate(-145.22 -51.079)" fill="none"/>
    </clipPath>
    <linearGradient id="linear-gradient-16" x1="-1.899" y1="3.403" x2="-1.885" y2="3.403" xlink:href="#linear-gradient"/>
    <clipPath id="clip-path-17">
      <path id="Path_4071" data-name="Path 4071" d="M162.723,61.825c-7.353,6.082-10.894,12.13-15.415,24.243-2.1,5.609,16.359,12.9,16.359,12.9,4.72-1.987,10.024-7.212,18.345-13.718s11.406-28.186,8.528-31.9c-.608-.786-1.873-1.132-3.561-1.132-6.3,0-18.461,4.813-24.256,9.608" transform="translate(-147.142 -52.217)" fill="none"/>
    </clipPath>
    <linearGradient id="linear-gradient-17" x1="-2.033" y1="3.572" x2="-2.018" y2="3.572" xlink:href="#linear-gradient-2"/>
    <clipPath id="clip-path-18">
      <path id="Path_4073" data-name="Path 4073" d="M166.945,75.323c-5.382,3.047-8.231,9.656-12.44,18.32a47.686,47.686,0,0,0,11.378-10.8c3.96-5.264,5.619-8.608,3.864-8.608a6.835,6.835,0,0,0-2.8,1.092" transform="translate(-154.505 -74.231)" fill="none"/>
    </clipPath>
    <linearGradient id="linear-gradient-18" x1="-4.054" y1="6.182" x2="-4.026" y2="6.182" xlink:href="#linear-gradient-3"/>
    <clipPath id="clip-path-19">
      <path id="Path_4074" data-name="Path 4074" d="M192.413,84.747c-10.047.353-18.174,6.057-28.287,12.2-5.267,3.2,7.008,21.785,7.008,21.785,5.365,1.464,13.27.823,24.428.757s25.965-17.117,25.483-22.341c-.472-5.108-17.77-12.409-27.933-12.409q-.355,0-.7.012" transform="translate(-162.813 -84.735)" fill="none"/>
    </clipPath>
    <linearGradient id="linear-gradient-19" x1="-2.227" y1="4.047" x2="-2.213" y2="4.047" xlink:href="#linear-gradient"/>
    <clipPath id="clip-path-20">
      <path id="Path_4075" data-name="Path 4075" d="M191.666,87.772c-9.511.763-15.882,3.684-26.532,11.015-4.937,3.392,6,19.954,6,19.954,5,1.08,12.346-.16,22.9-.713s25.51-16.544,25.285-21.243c-.2-4.372-15.789-9.09-25.606-9.09-.714,0-1.4.025-2.042.077" transform="translate(-163.854 -87.695)" fill="none"/>
    </clipPath>
    <linearGradient id="linear-gradient-20" x1="-2.391" y1="4.331" x2="-2.376" y2="4.331" xlink:href="#linear-gradient-2"/>
    <clipPath id="clip-path-21">
      <path id="Path_4077" data-name="Path 4077" d="M166.689,109.113a47.644,47.644,0,0,0,15.519-2.323c8.284-2.7,11.343-4.952,5.182-5.545q-.642-.061-1.282-.061c-5.736,0-11.586,3.571-19.419,7.929" transform="translate(-166.689 -101.184)" fill="none"/>
    </clipPath>
    <linearGradient id="linear-gradient-21" x1="-5.026" y1="7.532" x2="-4.995" y2="7.532" xlink:href="#linear-gradient-3"/>
    <clipPath id="clip-path-22">
      <path id="Path_4078" data-name="Path 4078" d="M172.5,119.961c-6.09.942-1.852,22.808-1.852,22.808,4.4,3.4,11.947,5.835,22.284,10.039s30.536-5.891,32.086-10.9-12.3-18.888-21.717-22.4a31.648,31.648,0,0,0-11.264-1.88c-6.031,0-12.412,1.234-19.538,2.335" transform="translate(-169.215 -117.626)" fill="none"/>
    </clipPath>
    <linearGradient id="linear-gradient-22" x1="-3.688" y1="2.725" x2="-3.667" y2="2.725" xlink:href="#linear-gradient"/>
    <clipPath id="clip-path-23">
      <path id="Path_4079" data-name="Path 4079" d="M172.728,122.047c-5.858,1.25-2.084,20.733-2.084,20.733,4.213,2.911,11.469,4.572,21.43,8.092s29.9-5.534,31.486-9.963-13.02-15.967-22.1-18.9a39.76,39.76,0,0,0-12.676-2.1,77.5,77.5,0,0,0-16.053,2.13" transform="translate(-169.448 -119.918)" fill="none"/>
    </clipPath>
    <linearGradient id="linear-gradient-23" x1="-4.189" y1="2.817" x2="-4.165" y2="2.817" xlink:href="#linear-gradient-2"/>
    <clipPath id="clip-path-24">
      <path id="Path_4081" data-name="Path 4081" d="M170.221,132.183a47.57,47.57,0,0,0,15.227,3.786c8.687.674,12.374-.24,6.909-3.142a18.513,18.513,0,0,0-8.869-1.83,124.481,124.481,0,0,0-13.268,1.185" transform="translate(-170.221 -130.998)" fill="none"/>
    </clipPath>
    <linearGradient id="linear-gradient-24" x1="-6.111" y1="17.895" x2="-6.075" y2="17.895" xlink:href="#linear-gradient-3"/>
    <clipPath id="clip-path-25">
      <path id="Path_4082" data-name="Path 4082" d="M160.542,164.816c3.252,4.511,9.8,8.984,18.521,15.951s30.949,3.014,33.861-1.35-6.435-21.6-14.469-27.642-17.942-6.719-29.665-8.3a2.483,2.483,0,0,0-.331-.022c-5.854,0-7.917,21.367-7.917,21.367" transform="translate(-160.542 -143.449)" fill="none"/>
    </clipPath>
    <linearGradient id="linear-gradient-25" x1="-2.489" y1="2.191" x2="-2.473" y2="2.191" xlink:href="#linear-gradient"/>
    <clipPath id="clip-path-26">
      <path id="Path_4083" data-name="Path 4083" d="M160.533,164.824c3.214,3.989,9.7,7.641,18.253,13.841s30.238,3.177,33.017-.619-7.953-19.006-15.831-24.392-14.665-7.122-27.559-8.119c-.07-.006-.138-.008-.207-.008-5.807,0-7.674,19.3-7.674,19.3" transform="translate(-160.533 -145.528)" fill="none"/>
    </clipPath>
    <linearGradient id="linear-gradient-26" x1="-2.737" y1="2.278" x2="-2.72" y2="2.278" xlink:href="#linear-gradient-2"/>
    <clipPath id="clip-path-27">
      <path id="Path_4085" data-name="Path 4085" d="M176.664,162.493c8.139,3.112,11.936,3.282,7.518-1.053s-11.554-5.244-21.044-6.9a47.644,47.644,0,0,0,13.526,7.949" transform="translate(-163.138 -154.544)" fill="none"/>
    </clipPath>
    <linearGradient id="linear-gradient-27" x1="-5.016" y1="4.928" x2="-4.985" y2="4.928" xlink:href="#linear-gradient-3"/>
    <clipPath id="clip-path-28">
      <path id="Path_4086" data-name="Path 4086" d="M98.84,89.769c-9.652,8.76-16.028,28.542-17.447,38.583-1.8,12.766-5.369,32.826-3.31,33.575,3.975,1.449,30.715,11.654,40.553,13.821s41.267-6.7,44.619-7.5c2.716-.643,4.815-16.27,6.7-26.4,2.247-12.053,1.959-35.1-2.555-42.595-4.29-7.119-19.353-14.506-31.312-16.113a115.209,115.209,0,0,0-15.021-1.285c-8.476,0-15.594,1.882-22.23,7.905" transform="translate(-77.462 -81.864)" fill="none"/>
    </clipPath>
    <linearGradient id="linear-gradient-28" x1="-0.79" y1="2.078" x2="-0.779" y2="2.078" gradientUnits="objectBoundingBox">
      <stop offset="0" stop-color="#483932"/>
      <stop offset="1" stop-color="#483932"/>
    </linearGradient>
    <clipPath id="clip-path-29">
      <rect id="Rectangle_1663" data-name="Rectangle 1663" width="289.362" height="281.353" fill="none"/>
    </clipPath>
    <clipPath id="clip-path-30">
      <path id="Path_4114" data-name="Path 4114" d="M106.67,85.153c.153,1.3-.574,5.282-4.2,9.279s-6.662,5.58-8.551,5.271c-2.709-.444-10.734,18.437-10.857,28.371-.067,5.43-.185,6.708,2.087,1.916,1.783-3.76,2.748-12.99,13.49-25.982s29.979-10.493,39.445-8.368,19.263,9.242,23.4,16.083c4.874,8.047,5.6,17.369,4.979,24.2-.563,6.183,1.938,8.623,2.265,7.5,3.039-10.387,1.17-31.55-.334-32.105s-4.43-6.626-4.8-10.017,1.166-3.293,1.146-4.3-12.8-10.4-29.042-13.234a82.065,82.065,0,0,0-13.994-1.223c-9.077,0-15.151,1.618-15.036,2.6" transform="translate(-83.039 -82.55)" fill="none"/>
    </clipPath>
    <linearGradient id="linear-gradient-29" x1="-0.932" y1="3.207" x2="-0.92" y2="3.207" gradientUnits="objectBoundingBox">
      <stop offset="0" stop-color="#99663d"/>
      <stop offset="1" stop-color="#794a2c"/>
    </linearGradient>
    <clipPath id="clip-path-31">
      <path id="Path_4115" data-name="Path 4115" d="M106.67,85.154c.153,1.3-.574,5.281-4.2,9.278s-6.662,5.58-8.551,5.271c-2.709-.444-10.734,18.437-10.857,28.371-.067,5.43-.185,6.708,2.087,1.916,1.783-3.76,2.748-12.99,13.49-25.982s29.979-10.493,39.445-8.368,19.263,9.242,23.4,16.083c7.15,11.808,4.824,15.7,4.928,26.967.018,2,1.983,7.376,2.648,4.367,2.526-11.424.838-31.179-.666-31.735s-4.43-6.626-4.8-10.017,1.166-3.293,1.146-4.3-12.8-10.4-29.042-13.234a82.063,82.063,0,0,0-13.993-1.223c-9.077,0-15.152,1.618-15.037,2.6" transform="translate(-83.039 -82.55)" fill="none"/>
    </clipPath>
    <clipPath id="clip-path-32">
      <path id="Path_4116" data-name="Path 4116" d="M104.267,97.79c-9.165,5.184-18.9,25.1-16.83,25.165.661.023,1.632-1.577,1.924-3.159s.5-2.747,1.624-3.247,1.251-1.8,1.541-3.333a3.438,3.438,0,0,1,1.957-2.831c1-.417,1.338-2.149,1.5-2.873s1.249-2.54,2.165-2.749a2.434,2.434,0,0,0,2.041-2.373,2.389,2.389,0,0,1,2.581-1.912c.625.038,1.738-1.009,2.29-1.877a2.739,2.739,0,0,1,2.956-1.041c1.207.292,2.058-1.121,2.79-1.749a3.143,3.143,0,0,1,3.082-.375c1.165.418,2.009-.3,2.789-.916a2.974,2.974,0,0,1,3.039,0,3.437,3.437,0,0,0,3.622-.123,2.375,2.375,0,0,1,3.123.415c.5.585,2.112.387,3.415-.207s2.331.249,3,1.081,2.478.272,3.705-.125a3.23,3.23,0,0,1,3.415,1.625c.542,1.081,2.248,1.165,3.5,1a3.008,3.008,0,0,1,3.373,2.293c.382,1.432,1.577,1.354,2.783,1.275a9.343,9.343,0,0,1,1.089-.029c1.487.084,1.665,1.124,1.665,2.082s.833,1.332,3.165,1.624,2.29,1.625,2.29,2.707.208,2.269,2.5,3.175,1.582,2.778,1.457,3.694.458,2.208,1.957,3.333a2.953,2.953,0,0,1,.791,3.871c-.541,1.207-.583,2.208,1,4.247s-.542,3.664-1.249,4.663.217,2.788,1.041,3.706a2.919,2.919,0,0,1,.78,2.467c-.119.516.843,1.593.78-4.778s-1.436-15.489-4.871-21.2-11.18-13.584-24.671-16.769a59.128,59.128,0,0,0-13.582-1.707,38.773,38.773,0,0,0-19.519,4.953" transform="translate(-87.157 -92.837)" fill="none"/>
    </clipPath>
    <linearGradient id="linear-gradient-30" x1="-1.043" y1="4.095" x2="-1.031" y2="4.095" gradientUnits="objectBoundingBox">
      <stop offset="0" stop-color="#99663d"/>
      <stop offset="1" stop-color="#99663d"/>
    </linearGradient>
    <clipPath id="clip-path-33">
      <path id="Path_4117" data-name="Path 4117" d="M78.083,161.981c2.617,1.553,21.046,12.4,41.449,14.408s43.686-5.623,44.879-7.071.149-2.48-.619-2.066-19.29,9.009-43.857,7.26-43.614-16.493-43.614-16.493c-.714.173.133,3,1.762,3.962" transform="translate(-76.065 -158.019)" fill="none"/>
    </clipPath>
    <linearGradient id="linear-gradient-31" x1="-2.121" y1="1.732" x2="-2.099" y2="1.732" gradientUnits="objectBoundingBox">
      <stop offset="0" stop-color="#407133"/>
      <stop offset="1" stop-color="#5c8a32"/>
    </linearGradient>
    <clipPath id="clip-path-35">
      <path id="Path_4121" data-name="Path 4121" d="M176.118,187.114a7.42,7.42,0,0,0-2.149,8.431c1.873,4.42,5.9,6.94,8.338,5.326,0,0,2.865-3,2.038-6.031s-2.287-6.709-4.79-7.3a23.36,23.36,0,0,0-2.759-.661,1.155,1.155,0,0,0-.678.238" transform="translate(-173.399 -186.876)" fill="none"/>
    </clipPath>
    <linearGradient id="linear-gradient-32" x1="-6.938" y1="3.958" x2="-6.897" y2="3.958" gradientUnits="objectBoundingBox">
      <stop offset="0" stop-color="#f08c9f"/>
      <stop offset="1" stop-color="#c11658"/>
    </linearGradient>
    <clipPath id="clip-path-36">
      <path id="Path_4123" data-name="Path 4123" d="M176.3,187.585a7.122,7.122,0,0,0-1.937,8.088c1.807,4.275,5.631,6.743,7.908,5.215,0,0,2.67-2.857,1.86-5.783s-2.221-6.479-4.586-7.077a20.6,20.6,0,0,0-2.618-.667,1.065,1.065,0,0,0-.628.223" transform="translate(-173.797 -187.362)" fill="none"/>
    </clipPath>
    <linearGradient id="linear-gradient-33" x1="-7.293" y1="4.099" x2="-7.249" y2="4.099" gradientUnits="objectBoundingBox">
      <stop offset="0" stop-color="#c4192f"/>
      <stop offset="0.01" stop-color="#c4192f"/>
      <stop offset="0.407" stop-color="#c4344c"/>
      <stop offset="0.751" stop-color="#c4455e"/>
      <stop offset="1" stop-color="#c54b65"/>
    </linearGradient>
    <clipPath id="clip-path-37">
      <path id="Path_4125" data-name="Path 4125" d="M182.726,198.178s-1.317,3.946.519,6.26,5.667,1.881,7.262,1.542a4.533,4.533,0,0,0,2.821-2.467c.171-.475-.482-2.974-3.388-5.549a5.329,5.329,0,0,0-3.59-1.38c-1.8,0-3.315.872-3.623,1.595" transform="translate(-182.268 -196.583)" fill="none"/>
    </clipPath>
    <linearGradient id="linear-gradient-34" x1="-9.254" y1="4.711" x2="-9.202" y2="4.711" gradientUnits="objectBoundingBox">
      <stop offset="0" stop-color="#f08c9f"/>
      <stop offset="1" stop-color="#d1496f"/>
    </linearGradient>
    <clipPath id="clip-path-38">
      <path id="Path_4127" data-name="Path 4127" d="M182.557,198.235s-1.137,3.772.606,6.037,5.263,1.928,6.727,1.637a3.989,3.989,0,0,0,2.549-2.315c.152-.454-.5-2.872-3.234-5.414a5,5,0,0,0-3.45-1.4c-1.606,0-2.935.786-3.2,1.46" transform="translate(-182.192 -196.775)" fill="none"/>
    </clipPath>
    <linearGradient id="linear-gradient-35" x1="-9.881" y1="4.964" x2="-9.825" y2="4.964" xlink:href="#linear-gradient-33"/>
    <clipPath id="clip-path-39">
      <path id="Path_4129" data-name="Path 4129" d="M173.274,205.379c-.319,2.2-.072,5.775,1.489,6.59s4.311-.742,5.97-3.066,1.594-6.811,1.594-6.811c-.609-1.483-1.328-2.145-3.688-2.513a2.062,2.062,0,0,0-.314-.024c-2.28,0-4.748,3.719-5.05,5.824" transform="translate(-173.152 -199.555)" fill="none"/>
    </clipPath>
    <linearGradient id="linear-gradient-36" x1="-8.995" y1="4.247" x2="-8.942" y2="4.247" gradientUnits="objectBoundingBox">
      <stop offset="0" stop-color="#ce426b"/>
      <stop offset="1" stop-color="#f08c9f"/>
    </linearGradient>
    <clipPath id="clip-path-40">
      <path id="Path_4131" data-name="Path 4131" d="M173.687,205.013c-.3,2.089-.059,5.482,1.418,6.261s4.082-.7,5.649-2.9,1.495-6.468,1.495-6.468c-.579-1.41-1.259-2.04-3.5-2.393a1.874,1.874,0,0,0-.3-.024c-2.157,0-4.483,3.527-4.767,5.525" transform="translate(-173.575 -199.488)" fill="none"/>
    </clipPath>
    <linearGradient id="linear-gradient-37" x1="-9.527" y1="4.471" x2="-9.47" y2="4.471" xlink:href="#linear-gradient-33"/>
    <clipPath id="clip-path-41">
      <path id="Path_4133" data-name="Path 4133" d="M175.49,192.489c-2.528.106-4.006,1.368-6.09,4.608s-1.929,6.675-.055,8.8,3.791,3.6,6.868,2.914,2.98-1.961,3.012-3.924,1.2-3.84,1.617-3.73,1.061-1.474-.141-2a2.779,2.779,0,0,1-2.09-2.78c-.063-2.142-.562-3.886-2.911-3.887-.068,0-.138,0-.211,0" transform="translate(-167.889 -192.484)" fill="none"/>
    </clipPath>
    <linearGradient id="linear-gradient-38" x1="-6.088" y1="3.416" x2="-6.05" y2="3.416" gradientUnits="objectBoundingBox">
      <stop offset="0" stop-color="#d45073"/>
      <stop offset="1" stop-color="#f08c9f"/>
    </linearGradient>
    <clipPath id="clip-path-42">
      <path id="Path_4135" data-name="Path 4135" d="M175.822,193.381c-2.346.149-3.74,1.3-5.738,4.205s-1.93,5.935-.242,7.769,3.433,3.094,6.3,2.417,2.8-1.8,2.869-3.53,1.2-3.42,1.58-3.331,1.014-1.325-.09-1.766a2.342,2.342,0,0,1-1.873-2.408c-.013-1.86-.422-3.368-2.5-3.368-.1,0-.2,0-.3.01" transform="translate(-168.581 -193.371)" fill="none"/>
    </clipPath>
    <linearGradient id="linear-gradient-39" x1="-6.759" y1="3.736" x2="-6.718" y2="3.736" gradientUnits="objectBoundingBox">
      <stop offset="0" stop-color="#c54b65"/>
      <stop offset="1" stop-color="#c11658"/>
    </linearGradient>
    <clipPath id="clip-path-43">
      <path id="Path_4137" data-name="Path 4137" d="M180.713,190.257c-1.633,1.673-.768,3.312.657,4.937a3.006,3.006,0,0,1,.56,3.436c-.389,1.207,1.065,1.894,1.247,1.529s2.152.171,3.481,1.551,2.11,2.369,4.467.729,2.563-4.017,2.305-6.831a7.415,7.415,0,0,0-5.89-6.261,14.154,14.154,0,0,0-3.4-.542,4.42,4.42,0,0,0-3.428,1.452" transform="translate(-179.827 -188.805)" fill="none"/>
    </clipPath>
    <linearGradient id="linear-gradient-40" x1="-6.863" y1="3.784" x2="-6.824" y2="3.784" xlink:href="#linear-gradient-34"/>
    <clipPath id="clip-path-44">
      <path id="Path_4139" data-name="Path 4139" d="M180.975,190.415c-1.327,1.508-.513,3.1.784,4.712a3.177,3.177,0,0,1,.635,3.28c-.282,1.129,1,1.847,1.137,1.509s1.86.261,3.059,1.633,1.919,2.341,3.874.9,2.023-3.694,1.675-6.375a7.758,7.758,0,0,0-5.339-6.2,10.655,10.655,0,0,0-3.208-.679,3.238,3.238,0,0,0-2.617,1.226" transform="translate(-180.296 -189.189)" fill="none"/>
    </clipPath>
    <linearGradient id="linear-gradient-41" x1="-7.54" y1="4.034" x2="-7.497" y2="4.034" gradientUnits="objectBoundingBox">
      <stop offset="0" stop-color="#c11658"/>
      <stop offset="0.4" stop-color="#c3325f"/>
      <stop offset="0.748" stop-color="#c44463"/>
      <stop offset="1" stop-color="#c54b65"/>
    </linearGradient>
    <clipPath id="clip-path-45">
      <path id="Path_4141" data-name="Path 4141" d="M184.562,199.971c-1.716.153.135,1.437-.7,2.2s-1.342-1.326-1.342-1.326a1.05,1.05,0,0,0-1.274.546c.617,2.2.055,2.5-.478,2.044s-1.205-.906-1.216.347.563,2.11,1.433,1.854.542.323.162,1.607,3.012,2.484,4.807,1.948,1.657-2.371,1.456-3.833-1.284-1.171-2.2-.893-.721-.5,1.271-1.23c1.938-.716-.078-3.267-1.769-3.267a1.419,1.419,0,0,0-.146.007" transform="translate(-179.552 -199.964)" fill="none"/>
    </clipPath>
    <linearGradient id="linear-gradient-42" x1="-11.208" y1="5.228" x2="-11.144" y2="5.228" xlink:href="#linear-gradient-38"/>
    <clipPath id="clip-path-46">
      <path id="Path_4143" data-name="Path 4143" d="M184.384,200.046c-1.586.1.166,1.425-.584,2.148s-1.286-1.349-1.286-1.349a.906.906,0,0,0-1.168.5c.639,2.188.126,2.476-.383,2.007s-1.146-.933-1.119.3.585,2.1,1.385,1.875.515.334.2,1.592,2.87,2.545,4.518,2.071,1.47-2.291,1.241-3.742-1.228-1.2-2.072-.948-.685-.512,1.142-1.178c1.8-.654-.21-3.28-1.787-3.279-.029,0-.058,0-.087,0" transform="translate(-179.843 -200.044)" fill="none"/>
    </clipPath>
    <linearGradient id="linear-gradient-43" x1="-11.778" y1="5.409" x2="-11.711" y2="5.409" gradientUnits="objectBoundingBox">
      <stop offset="0" stop-color="#e82717"/>
      <stop offset="0.191" stop-color="#d8241a"/>
      <stop offset="0.472" stop-color="#ba1f20"/>
      <stop offset="1" stop-color="#e82717"/>
    </linearGradient>
    <clipPath id="clip-path-47">
      <path id="Path_4145" data-name="Path 4145" d="M183.482,202.563c-.454.528-.95-1.177-.95-1.177a.49.49,0,0,0-.743.32c.577,1.8.254,2-.117,1.584s-.826-.828-.724.166.535,1.733,1.051,1.607.364.3.243,1.3,2.088,2.25,3.155,1.988.819-1.738.566-2.923-.9-1.047-1.446-.91-.489-.46.685-.866-.426-2.735-1.476-2.767h-.042c-.974,0,.246,1.164-.2,1.686" transform="translate(-180.932 -200.877)" fill="none"/>
    </clipPath>
    <linearGradient id="linear-gradient-44" x1="-16.141" y1="6.995" x2="-16.051" y2="6.995" gradientUnits="objectBoundingBox">
      <stop offset="0" stop-color="#ef5713"/>
      <stop offset="0.183" stop-color="#f47327"/>
      <stop offset="0.364" stop-color="#f88937"/>
      <stop offset="0.482" stop-color="#fa913d"/>
      <stop offset="0.619" stop-color="#f98f37"/>
      <stop offset="0.783" stop-color="#f88929"/>
      <stop offset="0.96" stop-color="#f78011"/>
      <stop offset="1" stop-color="#f77e0b"/>
    </linearGradient>
    <clipPath id="clip-path-48">
      <path id="Path_4147" data-name="Path 4147" d="M183.39,202.6c-.332.475-.865-1.212-.865-1.212-.52-.308-.588.249-.588.249.6,1.794.354,1.957.019,1.528s-.739-.869-.583.1.568,1.72.983,1.636.321.324.292,1.272,1.882,2.342,2.737,2.167.547-1.622.253-2.786-.816-1.084-1.255-.992-.435-.484.5-.785-.549-2.683-1.418-2.8a.755.755,0,0,0-.1-.008c-.67,0,.345,1.167.028,1.624" transform="translate(-181.338 -200.98)" fill="none"/>
    </clipPath>
    <linearGradient id="linear-gradient-45" x1="-17.316" y1="7.353" x2="-17.219" y2="7.353" gradientUnits="objectBoundingBox">
      <stop offset="0" stop-color="#ffe178"/>
      <stop offset="0.056" stop-color="#fed66b"/>
      <stop offset="0.237" stop-color="#feb748"/>
      <stop offset="0.386" stop-color="#fea332"/>
      <stop offset="0.482" stop-color="#fe9d2b"/>
      <stop offset="0.584" stop-color="#fea130"/>
      <stop offset="0.705" stop-color="#feac3e"/>
      <stop offset="0.837" stop-color="#fec056"/>
      <stop offset="0.975" stop-color="#fedb78"/>
      <stop offset="1" stop-color="#ffe17f"/>
    </linearGradient>
    <clipPath id="clip-path-50">
      <path id="Path_4151" data-name="Path 4151" d="M172.606,199.778c-.666,1.317,5.823.106,5.823.106a19.454,19.454,0,0,0-4.148-.665c-.8,0-1.464.142-1.675.559" transform="translate(-172.558 -199.219)" fill="none"/>
    </clipPath>
    <linearGradient id="linear-gradient-46" x1="-21.941" y1="12.834" x2="-21.813" y2="12.834" xlink:href="#linear-gradient-38"/>
    <clipPath id="clip-path-51">
      <path id="Path_4153" data-name="Path 4153" d="M174.069,204.35c.164,1.3,3.907-3.081,4.556-3.991,0,0-4.723,2.692-4.556,3.991" transform="translate(-174.065 -200.359)" fill="none"/>
    </clipPath>
    <linearGradient id="linear-gradient-47" x1="-20.408" y1="9.493" x2="-20.29" y2="9.493" xlink:href="#linear-gradient-38"/>
    <clipPath id="clip-path-52">
      <path id="Path_4155" data-name="Path 4155" d="M183.524,197.566s5.225-4.12,3.823-4.5a.618.618,0,0,0-.161-.021c-1.42,0-3.662,4.517-3.662,4.517" transform="translate(-183.524 -193.049)" fill="none"/>
    </clipPath>
    <linearGradient id="linear-gradient-48" x1="-21.092" y1="10.455" x2="-20.976" y2="10.455" xlink:href="#linear-gradient-38"/>
    <clipPath id="clip-path-53">
      <path id="Path_4157" data-name="Path 4157" d="M183.738,198.035c1.1.116,6.779.207,5.949-.79a1.392,1.392,0,0,0-1.059-.3,20.4,20.4,0,0,0-4.89,1.093" transform="translate(-183.738 -196.942)" fill="none"/>
    </clipPath>
    <linearGradient id="linear-gradient-49" x1="-23.614" y1="13.093" x2="-23.485" y2="13.093" xlink:href="#linear-gradient-38"/>
  </defs>
  <g id="Group_7737" data-name="Group 7737" transform="translate(119.948 31.652)">
    <g id="Group_7736" data-name="Group 7736" clip-path="url(#clip-path)">
      <rect id="Rectangle_1644" data-name="Rectangle 1644" width="63.913" height="49.815" transform="matrix(0.156, -0.988, 0.988, 0.156, -10.532, 56.781)" fill="url(#linear-gradient)"/>
    </g>
  </g>
  <g id="Group_7739" data-name="Group 7739" transform="translate(122.155 33.093)">
    <g id="Group_7738" data-name="Group 7738" clip-path="url(#clip-path-2)">
      <rect id="Rectangle_1645" data-name="Rectangle 1645" width="61.205" height="43.896" transform="translate(-9.403 54.984) rotate(-81.033)" fill="url(#linear-gradient-2)"/>
    </g>
  </g>
  <g id="Group_7741" data-name="Group 7741" transform="translate(133.087 61.701)">
    <g id="Group_7740" data-name="Group 7740" clip-path="url(#clip-path-3)">
      <path id="Path_4052" data-name="Path 4052" d="M130.312,86.286l1.92-24.838,8.49.381L138.8,86.667Z" transform="translate(-133.179 -61.745)" fill="url(#linear-gradient-3)"/>
    </g>
  </g>
  <g id="Group_7743" data-name="Group 7743" transform="translate(84.868 34.266)">
    <g id="Group_7742" data-name="Group 7742" clip-path="url(#clip-path-4)">
      <rect id="Rectangle_1646" data-name="Rectangle 1646" width="54.427" height="70.404" transform="translate(-18.999 5.907) rotate(-17.984)" fill="url(#linear-gradient-4)"/>
    </g>
  </g>
  <g id="Group_7745" data-name="Group 7745" transform="translate(87.775 36.032)">
    <g id="Group_7744" data-name="Group 7744" clip-path="url(#clip-path-5)">
      <rect id="Rectangle_1647" data-name="Rectangle 1647" width="50.557" height="66.414" transform="translate(-18.289 5.602) rotate(-17.984)" fill="url(#linear-gradient-5)"/>
    </g>
  </g>
  <g id="Group_7747" data-name="Group 7747" transform="translate(101.662 64.376)">
    <g id="Group_7746" data-name="Group 7746" clip-path="url(#clip-path-6)">
      <path id="Path_4056" data-name="Path 4056" d="M102.928,91.511l-9.69-23.36L109.222,60.9l9.69,23.36Z" transform="translate(-101.728 -64.419)" fill="url(#linear-gradient-6)"/>
    </g>
  </g>
  <g id="Group_7749" data-name="Group 7749" transform="translate(52.161 61.26)">
    <g id="Group_7748" data-name="Group 7748" clip-path="url(#clip-path-7)">
      <rect id="Rectangle_1648" data-name="Rectangle 1648" width="71.419" height="71.273" transform="matrix(0.659, -0.752, 0.752, 0.659, -27.824, 29.061)" fill="url(#linear-gradient-7)"/>
    </g>
  </g>
  <g id="Group_7751" data-name="Group 7751" transform="translate(53.313 63.29)">
    <g id="Group_7750" data-name="Group 7750" clip-path="url(#clip-path-8)">
      <rect id="Rectangle_1649" data-name="Rectangle 1649" width="67.571" height="67.736" transform="matrix(0.659, -0.752, 0.752, 0.659, -25.89, 26.639)" fill="url(#linear-gradient-8)"/>
    </g>
  </g>
  <g id="Group_7753" data-name="Group 7753" transform="translate(74.951 84.779)">
    <g id="Group_7752" data-name="Group 7752" clip-path="url(#clip-path-9)">
      <path id="Path_4060" data-name="Path 4060" d="M87.48,110.664,67.228,95.593,81.316,75.328,101.567,90.4Z" transform="translate(-74.999 -84.832)" fill="url(#linear-gradient-9)"/>
    </g>
  </g>
  <g id="Group_7755" data-name="Group 7755" transform="translate(33.494 97.54)">
    <g id="Group_7754" data-name="Group 7754" clip-path="url(#clip-path-10)">
      <rect id="Rectangle_1650" data-name="Rectangle 1650" width="51.697" height="65.519" transform="translate(-11.308 35.862) rotate(-75.316)" fill="url(#linear-gradient-10)"/>
    </g>
  </g>
  <g id="Group_7757" data-name="Group 7757" transform="translate(34.849 99.821)">
    <g id="Group_7756" data-name="Group 7756" clip-path="url(#clip-path-11)">
      <rect id="Rectangle_1651" data-name="Rectangle 1651" width="46.911" height="62.889" transform="translate(-10.18 31.607) rotate(-75.316)" fill="url(#linear-gradient-11)"/>
    </g>
  </g>
  <g id="Group_7759" data-name="Group 7759" transform="translate(62.742 116.107)">
    <g id="Group_7758" data-name="Group 7758" clip-path="url(#clip-path-12)">
      <path id="Path_4064" data-name="Path 4064" d="M86.309,127.371l-25.4-4.543,1.6-11.012,25.4,4.543Z" transform="translate(-62.785 -116.186)" fill="url(#linear-gradient-12)"/>
    </g>
  </g>
  <g id="Group_7761" data-name="Group 7761" transform="translate(27.774 130.679)">
    <g id="Group_7760" data-name="Group 7760" clip-path="url(#clip-path-13)">
      <rect id="Rectangle_1652" data-name="Rectangle 1652" width="66.039" height="43.077" transform="translate(-4.459 0.494) rotate(-6.723)" fill="url(#linear-gradient-13)"/>
    </g>
  </g>
  <g id="Group_7763" data-name="Group 7763" transform="translate(29.433 132.405)">
    <g id="Group_7762" data-name="Group 7762" clip-path="url(#clip-path-14)">
      <rect id="Rectangle_1653" data-name="Rectangle 1653" width="62.942" height="37.722" transform="translate(-4.042 0.424) rotate(-6.723)" fill="url(#linear-gradient-14)"/>
    </g>
  </g>
  <g id="Group_7765" data-name="Group 7765" transform="translate(58.626 144.608)">
    <g id="Group_7764" data-name="Group 7764" clip-path="url(#clip-path-15)">
      <path id="Path_4068" data-name="Path 4068" d="M84.866,151.291l-27.939,5.564-2.76-11.843,27.939-5.564Z" transform="translate(-58.664 -144.706)" fill="url(#linear-gradient-15)"/>
    </g>
  </g>
  <g id="Group_7767" data-name="Group 7767" transform="translate(145.117 51.043)">
    <g id="Group_7766" data-name="Group 7766" clip-path="url(#clip-path-16)">
      <rect id="Rectangle_1654" data-name="Rectangle 1654" width="70.498" height="71.079" transform="matrix(0.643, -0.766, 0.766, 0.643, -25.852, 28.089)" fill="url(#linear-gradient-16)"/>
    </g>
  </g>
  <g id="Group_7769" data-name="Group 7769" transform="translate(147.038 52.18)">
    <g id="Group_7768" data-name="Group 7768" clip-path="url(#clip-path-17)">
      <rect id="Rectangle_1655" data-name="Rectangle 1655" width="66.804" height="66.982" transform="matrix(0.643, -0.766, 0.766, 0.643, -24.954, 27.428)" fill="url(#linear-gradient-17)"/>
    </g>
  </g>
  <g id="Group_7771" data-name="Group 7771" transform="translate(154.396 74.179)">
    <g id="Group_7770" data-name="Group 7770" clip-path="url(#clip-path-18)">
      <path id="Path_4072" data-name="Path 4072" d="M145.113,87.4l14.848-20.841,20.92,13.906-14.848,20.841Z" transform="translate(-154.498 -74.226)" fill="url(#linear-gradient-18)"/>
    </g>
  </g>
  <g id="Group_7773" data-name="Group 7773" transform="translate(162.698 84.675)">
    <g id="Group_7772" data-name="Group 7772" clip-path="url(#clip-path-19)">
      <rect id="Rectangle_1656" data-name="Rectangle 1656" width="69.704" height="50.454" transform="matrix(0.966, -0.259, 0.259, 0.966, -12.809, 2.37)" fill="url(#linear-gradient-19)"/>
    </g>
  </g>
  <g id="Group_7775" data-name="Group 7775" transform="translate(163.739 87.633)">
    <g id="Group_7774" data-name="Group 7774" clip-path="url(#clip-path-20)">
      <rect id="Rectangle_1657" data-name="Rectangle 1657" width="65.629" height="46.376" transform="matrix(0.966, -0.259, 0.259, 0.966, -11.68, 2.147)" fill="url(#linear-gradient-20)"/>
    </g>
  </g>
  <g id="Group_7777" data-name="Group 7777" transform="translate(166.571 101.113)">
    <g id="Group_7776" data-name="Group 7776" clip-path="url(#clip-path-21)">
      <path id="Path_4076" data-name="Path 4076" d="M163.832,102.191l26.442-9.38,6.131,15.66-26.442,9.38Z" transform="translate(-166.687 -101.178)" fill="url(#linear-gradient-21)"/>
    </g>
  </g>
  <g id="Group_7779" data-name="Group 7779" transform="translate(169.095 117.543)">
    <g id="Group_7778" data-name="Group 7778" clip-path="url(#clip-path-22)">
      <rect id="Rectangle_1658" data-name="Rectangle 1658" width="46.888" height="64.781" transform="translate(-7.892 38.714) rotate(-82.512)" fill="url(#linear-gradient-22)"/>
    </g>
  </g>
  <g id="Group_7781" data-name="Group 7781" transform="translate(169.328 119.833)">
    <g id="Group_7780" data-name="Group 7780" clip-path="url(#clip-path-23)">
      <rect id="Rectangle_1659" data-name="Rectangle 1659" width="41.776" height="62.274" transform="translate(-7.032 33.888) rotate(-82.512)" fill="url(#linear-gradient-23)"/>
    </g>
  </g>
  <g id="Group_7783" data-name="Group 7783" transform="translate(170.101 130.906)">
    <g id="Group_7782" data-name="Group 7782" clip-path="url(#clip-path-24)">
      <path id="Path_4080" data-name="Path 4080" d="M170.248,129.576,197.93,131l-.135,7.06-27.682-1.426Z" transform="translate(-170.221 -130.997)" fill="url(#linear-gradient-24)"/>
    </g>
  </g>
  <g id="Group_7785" data-name="Group 7785" transform="translate(160.429 143.348)">
    <g id="Group_7784" data-name="Group 7784" clip-path="url(#clip-path-25)">
      <rect id="Rectangle_1660" data-name="Rectangle 1660" width="62.924" height="68.514" transform="translate(-16.438 36.969) rotate(-66.029)" fill="url(#linear-gradient-25)"/>
    </g>
  </g>
  <g id="Group_7787" data-name="Group 7787" transform="translate(160.42 145.425)">
    <g id="Group_7786" data-name="Group 7786" clip-path="url(#clip-path-26)">
      <rect id="Rectangle_1661" data-name="Rectangle 1661" width="57.903" height="65.367" transform="translate(-14.604 32.844) rotate(-66.029)" fill="url(#linear-gradient-26)"/>
    </g>
  </g>
  <g id="Group_7789" data-name="Group 7789" transform="translate(163.023 154.435)">
    <g id="Group_7788" data-name="Group 7788" clip-path="url(#clip-path-27)">
      <path id="Path_4084" data-name="Path 4084" d="M165.7,146.458l26.1,9.209-5.76,18.182-26.1-9.209Z" transform="translate(-163.136 -154.538)" fill="url(#linear-gradient-27)"/>
    </g>
  </g>
  <g id="Group_7791" data-name="Group 7791" transform="translate(77.407 81.806)">
    <g id="Group_7790" data-name="Group 7790" clip-path="url(#clip-path-28)">
      <rect id="Rectangle_1662" data-name="Rectangle 1662" width="96.182" height="96.051" transform="translate(-1.438 0)" fill="url(#linear-gradient-28)"/>
    </g>
  </g>
  <g id="Group_7793" data-name="Group 7793">
    <g id="Group_7792" data-name="Group 7792" clip-path="url(#clip-path-29)">
      <path id="Path_4087" data-name="Path 4087" d="M106.158,84.4c-.172-1.473,13.119-4.318,29.773-1.415S165.7,95.526,165.718,96.559s-1.561.933-1.176,4.41,3.386,9.7,4.928,10.272,3.7,21.066-.573,32.278c-2.168,5.695-3.5,4.635-2.218-2.283s.7-21.329-4.295-29.583c-4.247-7.015-14.3-14.317-24-16.494s-29.436-4.74-40.453,8.583-12.008,22.789-13.837,26.647c-2.329,4.915-2.208,3.6-2.138-1.965.125-10.19,8.356-29.552,11.134-29.1,1.938.317,5.054-1.306,8.77-5.406s4.459-8.18,4.3-9.516" transform="translate(-0.058 -0.058)" fill="#623a1d"/>
      <path id="Path_4088" data-name="Path 4088" d="M95.885,100.573s-12.7-5.048-12.818-11.307c-.041-2.22,1.987-9.118,8.286-13.328s11.747-1.351,13.234.467c2.019,2.476,2.546,14.64,2.546,14.64s-.935,11.884-11.248,9.528" transform="translate(-0.059 -0.052)" fill="#1a1818"/>
      <path id="Path_4089" data-name="Path 4089" d="M161.551,100.164s8.214-8.6,12.3-9.179A8.467,8.467,0,0,1,180.805,93c4.273,4.384,3.416,15.154.586,17.383-3.235,2.545-16.331.89-18.155-.258s-1.685-9.965-1.685-9.965" transform="translate(-0.114 -0.064)" fill="#1a1818"/>
      <path id="Path_4090" data-name="Path 4090" d="M78.75,166.772s1.25-30.411,9.962-51.935,14.539-25.477,23.375-28.551c10.107-3.516,38.928,1.576,48.343,9.635,10.169,8.7,7.776,17.52,7.6,36.981s-5.524,36.432-6.857,41.081-42.7,19-42.7,19-39.44-22.014-39.731-26.215" transform="translate(-0.056 -0.06)" fill="#1a1818"/>
      <path id="Path_4091" data-name="Path 4091" d="M155.482,165.132s7.6,6.809,9.519,17.08c1.05,5.6,3.812,40.632-4.079,55.919-7.993,15.486-19.7,18.356-43.06,18.938-25.883.65-39.639-8.146-44.462-15.141-10.54-15.293-9.75-39.157-2.828-60.739,3.209-10,8.806-18.424,9.987-19Z" transform="translate(-0.046 -0.114)" fill="#1a1818"/>
      <path id="Path_4092" data-name="Path 4092" d="M126.7,244.525s.351,11.257,2.3,17.32c2.109,6.586,2.787,7.637,3.861,10.537,0,0-.132,1.164-2.293,2.78-3.589,2.678-5.8,4.125-5.841,4.485s2.652-.235,2.617.127a3.541,3.541,0,0,0,.382,1.212s3.192-1.146,3.026-.672.211,1.364.615,1.189a91.272,91.272,0,0,1,10.284-4.318c3.65-1.068,3.848-1.86,3.662-3.136a36.185,36.185,0,0,1,.414-11.98c1.179-5.207,2.759-7.668,5.983-12.425,1.995-2.948-25.005-5.119-25.005-5.119" transform="translate(-0.088 -0.173)" fill="#1a1818"/>
      <path id="Path_4093" data-name="Path 4093" d="M107.019,239.69s.434,13.467-1.019,19.223c-1.963,7.8-5.462,14.179-5.568,14.946s7.683,4,7.612,4.752c0,0-3.033.191-2.789.448a3.407,3.407,0,0,1,.931,1.4s-2.238-.141-3.1-.076-.278.852-.71,1.1-1.925-.746-7.875-2.6c-7.191-2.242-7.073-3.534-6.691-5.242.233-1.026.073-5.681-.784-11.806-.58-4.08-6.756-10.406-8.353-14.511a256.511,256.511,0,0,1,28.353-7.632" transform="translate(-0.056 -0.169)" fill="#1a1818"/>
      <path id="Path_4094" data-name="Path 4094" d="M166.864,141.16s.706,4.861,9.534,10.7c0,0-6.657,2.491-6.307,4.866s8.151,8.5,8.151,8.5-12.573-.78-15.632,3.068Z" transform="translate(-0.115 -0.1)" fill="#1a1818"/>
      <path id="Path_4095" data-name="Path 4095" d="M166.864,141.16s.706,4.861,9.534,10.7c0,0-6.657,2.491-6.307,4.866s8.151,8.5,8.151,8.5-12.573-.78-15.632,3.068Z" transform="translate(-0.115 -0.1)" fill="none" stroke="#1a1818" stroke-linecap="round" stroke-linejoin="round" stroke-width="0.725"/>
      <path id="Path_4096" data-name="Path 4096" d="M83.471,133.418s-5.762,3.954-12.167,4.193c0,0,5.874,4.824,4.2,6.513-4,4.045-7.148,4.566-7.148,4.566s5.676,2.481,11.158,14.546Z" transform="translate(-0.048 -0.094)" fill="#1a1818"/>
      <path id="Path_4097" data-name="Path 4097" d="M83.471,133.418s-5.762,3.954-12.167,4.193c0,0,5.874,4.824,4.2,6.513-4,4.045-7.148,4.566-7.148,4.566s5.676,2.481,11.158,14.546Z" transform="translate(-0.048 -0.094)" fill="none" stroke="#1a1818" stroke-linecap="round" stroke-linejoin="round" stroke-width="0.725"/>
      <path id="Path_4098" data-name="Path 4098" d="M126.47,202.123c-1.11.027-2.163,0-5.072-.165l-1.372-.074s-.133,1.066-.235,2.36l.9.049c2.128.118,2.759,1.229,2.753,2.974l-.033,2.785c.242-.011,2.225.095,2.46.139.021-1.947.336-6.131.595-8.068m-8.5,16.186c-.008-1.473.748-13.8.777-14.126.1-1.287.238-2.358.238-2.358l-4.709-.261s.017,1.076-.023,2.373c-.116,3.712-.608,12.659-.783,14.119-.121,1.169-.609,1.827-1.957,1.753l-1.44-.08-.13,2.361s3.566.14,5.547.252c2.008.111,5.545.368,5.545.368l.132-2.364-1.53-.084c-1.381-.074-1.67-.811-1.668-1.953m-4.787-14.431c.041-1.3.019-2.372.019-2.372l-1.3-.073c-2.671-.149-4.076-.258-5.121-.4.046,1.953-.1,6.147-.3,8.087.272-.015,2.277.094,2.515.141l.278-2.778c.183-1.73.933-2.769,3.062-2.65Z" transform="translate(-0.075 -0.142)" fill="#ef5713"/>
      <path id="Path_4099" data-name="Path 4099" d="M79.638,162.191l-.138.326s4.85,4.958,19.76,18.777c9.471,8.779,15.662,13.747,17.724,14.59a103.239,103.239,0,0,0,16.787-8.312c16.881-9.988,19.939-13.515,27.085-17.857a1.254,1.254,0,0,0-.164-.292s-38.8,11.986-42.648,12.151c0,0-10.865-4.987-38.407-19.382" transform="translate(-0.056 -0.114)" fill="#fff"/>
      <path id="Path_4100" data-name="Path 4100" d="M101.69,111.622a13.343,13.343,0,0,1,8.876-1.639c4.758.731,7.44,3.937,7.755,4.838,0,0-2.9,2.9-8.939,1.976-4.253-.652-7.152-3.486-7.692-5.174" transform="translate(-0.072 -0.078)" fill="#fff"/>
      <path id="Path_4101" data-name="Path 4101" d="M111.64,109.575a2.145,2.145,0,0,0-1.294.258,1.363,1.363,0,0,1,.825,1.63c-.114.824-.687,1.426-1.278,1.345s-.979-.818-.865-1.642c0-.016.007-.031.01-.046a4.973,4.973,0,0,0-.667,1.892c-.293,2.108.7,3.987,2.212,4.2s2.976-1.33,3.267-3.438-.7-3.986-2.21-4.2" transform="translate(-0.076 -0.077)" fill="#070202"/>
      <path id="Path_4102" data-name="Path 4102" d="M155.1,119.018a13.354,13.354,0,0,0-8.1-3.99c-4.776-.588-8.229,1.768-8.776,2.551,0,0,2,3.581,8.066,4.328,4.268.53,7.828-1.411,8.808-2.889" transform="translate(-0.098 -0.081)" fill="#fff"/>
      <path id="Path_4103" data-name="Path 4103" d="M146.093,114.346a2.163,2.163,0,0,0-1.3.256,1.366,1.366,0,0,1,.828,1.631c-.113.823-.687,1.427-1.279,1.345s-.976-.817-.862-1.641c0-.017.005-.031.009-.046a4.882,4.882,0,0,0-.666,1.892c-.293,2.108.7,3.986,2.21,4.2s2.974-1.331,3.267-3.439-.7-3.987-2.208-4.2" transform="translate(-0.101 -0.081)" fill="#070202"/>
      <path id="Path_4104" data-name="Path 4104" d="M126.954,126.142c-12.937-2.069-16.587,4.089-17.885,12.2-2.366,14.8,6.858,22.293,12.231,23.15s16.473-3.382,18.841-18.177c1.3-8.111-.253-15.1-13.187-17.168" transform="translate(-0.077 -0.089)" fill="#8f5430"/>
      <path id="Path_4105" data-name="Path 4105" d="M123.1,148.586a.95.95,0,0,1-.692-1.141l2.2-13.76a.874.874,0,1,1,1.7.273l-2.2,13.76a.946.946,0,0,1-1.011.868" transform="translate(-0.086 -0.094)" fill="#070202"/>
      <path id="Path_4106" data-name="Path 4106" d="M121.6,131.366l3.389,5.4,4.912-4.076Z" transform="translate(-0.086 -0.093)" fill="#070202"/>
      <path id="Path_4107" data-name="Path 4107" d="M124.795,137.951h0a1.189,1.189,0,0,1-.821-.545L120.579,132a1.2,1.2,0,0,1,1.2-1.818l8.3,1.329a1.2,1.2,0,0,1,.574,2.1l-4.907,4.078a1.192,1.192,0,0,1-.956.261m-.788-4.988,1.264,2.017,1.832-1.521Z" transform="translate(-0.085 -0.092)" fill="#070202"/>
      <path id="Path_4108" data-name="Path 4108" d="M125.19,142.745c2.805,1.11,3.416,5.665.643,8.668-3.1,3.355-6.8.4-6.842-3.742-.026-3.209,2.282-6.488,6.2-4.926" transform="translate(-0.084 -0.1)" fill="#fff"/>
      <path id="Path_4109" data-name="Path 4109" d="M122.3,154.033c-2.554-.41-4.5-3.14-4.535-6.352a6.983,6.983,0,0,1,2.222-5.351,5.306,5.306,0,0,1,5.647-.722,5.154,5.154,0,0,1,3.041,3.782,7.747,7.747,0,0,1-1.951,6.847,4.946,4.946,0,0,1-4.425,1.8m1.476-10.427a2.6,2.6,0,0,0-2.2.578,4.591,4.591,0,0,0-1.373,3.478c.024,2.233,1.276,3.767,2.479,3.959a2.659,2.659,0,0,0,2.244-1.039,5.252,5.252,0,0,0,1.363-4.649,2.749,2.749,0,0,0-1.558-2.054,4.561,4.561,0,0,0-.959-.273" transform="translate(-0.083 -0.1)" fill="#070202"/>
      <path id="Path_4110" data-name="Path 4110" d="M188.213,211.741c-3.414-5.5-7-12.657-11.492-22.4-5.681-12.306-12.069-21.8-15.216-21.671,0,0-15.826,22.366.038,34.912a77.963,77.963,0,0,1,16.068,15.853c4.3,0,8.326-1.714,10.6-6.7" transform="translate(-0.109 -0.118)" fill="#1a1818"/>
      <path id="Path_4111" data-name="Path 4111" d="M69.664,161.821c4.291,1.39,8.456,33.817-.607,34.808s-12.691-12.522-12.639-19.11,2.6-19.145,13.246-15.7" transform="translate(-0.04 -0.114)" fill="#1a1818"/>
      <path id="Path_4112" data-name="Path 4112" d="M79.49,162.518c2.891,1.11-1.186,30.812-11.551,29.858S65.7,159.111,79.627,162.192" transform="translate(-0.045 -0.114)" fill="#1a1818"/>
      <path id="Path_4113" data-name="Path 4113" d="M72.625,171.423s2.725,5.521,2.875,15.24-5.767,9.832-5.767,9.832,3.379-.959,4.293-4.091c.979-3.352,1.422-7.395.167-14.052-.548-2.91-2-6.929-1.568-6.929" transform="translate(-0.049 -0.121)" fill="#96999c"/>
    </g>
  </g>
  <g id="Group_7795" data-name="Group 7795" transform="translate(82.98 82.492)">
    <g id="Group_7794" data-name="Group 7794" clip-path="url(#clip-path-30)">
      <rect id="Rectangle_1664" data-name="Rectangle 1664" width="88.893" height="61.997" transform="translate(-0.158 0)" fill="url(#linear-gradient-29)"/>
    </g>
  </g>
  <g id="Group_7797" data-name="Group 7797" transform="translate(82.98 82.492)">
    <g id="Group_7796" data-name="Group 7796" clip-path="url(#clip-path-31)">
      <line id="Line_670" data-name="Line 670" x2="156.829" y2="156.83" transform="translate(49.286 -82.227)" fill="none" stroke="#623a1d" stroke-miterlimit="10" stroke-width="0.75"/>
      <line id="Line_671" data-name="Line 671" x2="156.829" y2="156.83" transform="translate(45.714 -78.655)" fill="none" stroke="#623a1d" stroke-miterlimit="10" stroke-width="0.75"/>
      <line id="Line_672" data-name="Line 672" x2="156.83" y2="156.83" transform="translate(42.14 -75.081)" fill="none" stroke="#623a1d" stroke-miterlimit="10" stroke-width="0.75"/>
      <line id="Line_673" data-name="Line 673" x2="156.829" y2="156.83" transform="translate(38.567 -71.508)" fill="none" stroke="#623a1d" stroke-miterlimit="10" stroke-width="0.75"/>
      <line id="Line_674" data-name="Line 674" x2="156.83" y2="156.829" transform="translate(34.994 -67.935)" fill="none" stroke="#623a1d" stroke-miterlimit="10" stroke-width="0.75"/>
      <line id="Line_675" data-name="Line 675" x2="156.83" y2="156.83" transform="translate(31.421 -64.362)" fill="none" stroke="#623a1d" stroke-miterlimit="10" stroke-width="0.75"/>
      <line id="Line_676" data-name="Line 676" x2="156.83" y2="156.83" transform="translate(27.847 -60.789)" fill="none" stroke="#623a1d" stroke-miterlimit="10" stroke-width="0.75"/>
      <line id="Line_677" data-name="Line 677" x2="156.83" y2="156.829" transform="translate(24.275 -57.216)" fill="none" stroke="#623a1d" stroke-miterlimit="10" stroke-width="0.75"/>
      <line id="Line_678" data-name="Line 678" x2="156.829" y2="156.83" transform="translate(20.702 -53.643)" fill="none" stroke="#623a1d" stroke-miterlimit="10" stroke-width="0.75"/>
      <line id="Line_679" data-name="Line 679" x2="156.83" y2="156.829" transform="translate(17.128 -50.069)" fill="none" stroke="#623a1d" stroke-miterlimit="10" stroke-width="0.75"/>
      <line id="Line_680" data-name="Line 680" x2="156.83" y2="156.83" transform="translate(13.556 -46.497)" fill="none" stroke="#623a1d" stroke-miterlimit="10" stroke-width="0.75"/>
      <line id="Line_681" data-name="Line 681" x2="156.829" y2="156.83" transform="translate(9.983 -42.924)" fill="none" stroke="#623a1d" stroke-miterlimit="10" stroke-width="0.75"/>
      <line id="Line_682" data-name="Line 682" x2="156.83" y2="156.829" transform="translate(6.409 -39.35)" fill="none" stroke="#623a1d" stroke-miterlimit="10" stroke-width="0.75"/>
      <line id="Line_683" data-name="Line 683" x2="156.83" y2="156.83" transform="translate(2.837 -35.778)" fill="none" stroke="#623a1d" stroke-miterlimit="10" stroke-width="0.75"/>
      <line id="Line_684" data-name="Line 684" x2="156.83" y2="156.83" transform="translate(-0.737 -32.205)" fill="none" stroke="#623a1d" stroke-miterlimit="10" stroke-width="0.75"/>
      <line id="Line_685" data-name="Line 685" x2="156.83" y2="156.83" transform="translate(-4.31 -28.631)" fill="none" stroke="#623a1d" stroke-miterlimit="10" stroke-width="0.75"/>
      <line id="Line_686" data-name="Line 686" x2="156.829" y2="156.83" transform="translate(-7.882 -25.059)" fill="none" stroke="#623a1d" stroke-miterlimit="10" stroke-width="0.75"/>
      <line id="Line_687" data-name="Line 687" x2="156.83" y2="156.829" transform="translate(-11.456 -21.485)" fill="none" stroke="#623a1d" stroke-miterlimit="10" stroke-width="0.75"/>
      <line id="Line_688" data-name="Line 688" x2="156.83" y2="156.83" transform="translate(-15.029 -17.912)" fill="none" stroke="#623a1d" stroke-miterlimit="10" stroke-width="0.75"/>
      <line id="Line_689" data-name="Line 689" x2="156.83" y2="156.829" transform="translate(-18.602 -14.339)" fill="none" stroke="#623a1d" stroke-miterlimit="10" stroke-width="0.75"/>
      <line id="Line_690" data-name="Line 690" x2="156.83" y2="156.829" transform="translate(-22.175 -10.766)" fill="none" stroke="#623a1d" stroke-miterlimit="10" stroke-width="0.75"/>
      <line id="Line_691" data-name="Line 691" x2="156.829" y2="156.83" transform="translate(-25.748 -7.193)" fill="none" stroke="#623a1d" stroke-miterlimit="10" stroke-width="0.75"/>
      <line id="Line_692" data-name="Line 692" x2="156.83" y2="156.829" transform="translate(-29.321 -3.62)" fill="none" stroke="#623a1d" stroke-miterlimit="10" stroke-width="0.75"/>
      <line id="Line_693" data-name="Line 693" x2="156.829" y2="156.83" transform="translate(-32.894 -0.047)" fill="none" stroke="#623a1d" stroke-miterlimit="10" stroke-width="0.75"/>
      <line id="Line_694" data-name="Line 694" x2="156.829" y2="156.83" transform="translate(-36.467 3.526)" fill="none" stroke="#623a1d" stroke-miterlimit="10" stroke-width="0.75"/>
      <line id="Line_695" data-name="Line 695" x2="156.83" y2="156.83" transform="translate(-40.04 7.099)" fill="none" stroke="#623a1d" stroke-miterlimit="10" stroke-width="0.75"/>
      <line id="Line_696" data-name="Line 696" x2="156.829" y2="156.83" transform="translate(-43.613 10.672)" fill="none" stroke="#623a1d" stroke-miterlimit="10" stroke-width="0.75"/>
      <line id="Line_697" data-name="Line 697" x2="156.83" y2="156.829" transform="translate(-47.187 14.246)" fill="none" stroke="#623a1d" stroke-miterlimit="10" stroke-width="0.75"/>
      <line id="Line_698" data-name="Line 698" x2="156.83" y2="156.83" transform="translate(-50.759 17.818)" fill="none" stroke="#623a1d" stroke-miterlimit="10" stroke-width="0.75"/>
      <line id="Line_699" data-name="Line 699" x2="156.83" y2="156.83" transform="translate(-54.333 21.391)" fill="none" stroke="#623a1d" stroke-miterlimit="10" stroke-width="0.75"/>
      <line id="Line_700" data-name="Line 700" x2="156.83" y2="156.83" transform="translate(-57.906 24.965)" fill="none" stroke="#623a1d" stroke-miterlimit="10" stroke-width="0.75"/>
      <line id="Line_701" data-name="Line 701" x2="156.829" y2="156.83" transform="translate(-61.478 28.537)" fill="none" stroke="#623a1d" stroke-miterlimit="10" stroke-width="0.75"/>
      <line id="Line_702" data-name="Line 702" x2="156.83" y2="156.829" transform="translate(-65.052 32.111)" fill="none" stroke="#623a1d" stroke-miterlimit="10" stroke-width="0.75"/>
      <line id="Line_703" data-name="Line 703" x2="156.83" y2="156.83" transform="translate(-68.625 35.684)" fill="none" stroke="#623a1d" stroke-miterlimit="10" stroke-width="0.75"/>
      <line id="Line_704" data-name="Line 704" x1="156.829" y2="156.83" transform="translate(49.287 35.684)" fill="none" stroke="#623a1d" stroke-miterlimit="10" stroke-width="0.75"/>
      <line id="Line_705" data-name="Line 705" x1="156.829" y2="156.829" transform="translate(45.714 32.111)" fill="none" stroke="#623a1d" stroke-miterlimit="10" stroke-width="0.75"/>
      <line id="Line_706" data-name="Line 706" x1="156.83" y2="156.83" transform="translate(42.14 28.537)" fill="none" stroke="#623a1d" stroke-miterlimit="10" stroke-width="0.75"/>
      <line id="Line_707" data-name="Line 707" x1="156.829" y2="156.83" transform="translate(38.568 24.965)" fill="none" stroke="#623a1d" stroke-miterlimit="10" stroke-width="0.75"/>
      <line id="Line_708" data-name="Line 708" x1="156.83" y2="156.83" transform="translate(34.994 21.391)" fill="none" stroke="#623a1d" stroke-miterlimit="10" stroke-width="0.75"/>
      <line id="Line_709" data-name="Line 709" x1="156.83" y2="156.83" transform="translate(31.421 17.818)" fill="none" stroke="#623a1d" stroke-miterlimit="10" stroke-width="0.75"/>
      <line id="Line_710" data-name="Line 710" x1="156.83" y2="156.829" transform="translate(27.848 14.246)" fill="none" stroke="#623a1d" stroke-miterlimit="10" stroke-width="0.75"/>
      <line id="Line_711" data-name="Line 711" x1="156.83" y2="156.83" transform="translate(24.275 10.672)" fill="none" stroke="#623a1d" stroke-miterlimit="10" stroke-width="0.75"/>
      <line id="Line_712" data-name="Line 712" x1="156.829" y2="156.83" transform="translate(20.702 7.099)" fill="none" stroke="#623a1d" stroke-miterlimit="10" stroke-width="0.75"/>
      <line id="Line_713" data-name="Line 713" x1="156.83" y2="156.83" transform="translate(17.129 3.526)" fill="none" stroke="#623a1d" stroke-miterlimit="10" stroke-width="0.75"/>
      <line id="Line_714" data-name="Line 714" x1="156.83" y2="156.83" transform="translate(13.556 -0.047)" fill="none" stroke="#623a1d" stroke-miterlimit="10" stroke-width="0.75"/>
      <line id="Line_715" data-name="Line 715" x1="156.829" y2="156.829" transform="translate(9.983 -3.62)" fill="none" stroke="#623a1d" stroke-miterlimit="10" stroke-width="0.75"/>
      <line id="Line_716" data-name="Line 716" x1="156.83" y2="156.83" transform="translate(6.41 -7.193)" fill="none" stroke="#623a1d" stroke-miterlimit="10" stroke-width="0.75"/>
      <line id="Line_717" data-name="Line 717" x1="156.83" y2="156.829" transform="translate(2.836 -10.766)" fill="none" stroke="#623a1d" stroke-miterlimit="10" stroke-width="0.75"/>
      <line id="Line_718" data-name="Line 718" x1="156.83" y2="156.829" transform="translate(-0.737 -14.339)" fill="none" stroke="#623a1d" stroke-miterlimit="10" stroke-width="0.75"/>
      <line id="Line_719" data-name="Line 719" x1="156.83" y2="156.83" transform="translate(-4.309 -17.912)" fill="none" stroke="#623a1d" stroke-miterlimit="10" stroke-width="0.75"/>
      <line id="Line_720" data-name="Line 720" x1="156.829" y2="156.829" transform="translate(-7.882 -21.485)" fill="none" stroke="#623a1d" stroke-miterlimit="10" stroke-width="0.75"/>
      <line id="Line_721" data-name="Line 721" x1="156.83" y2="156.83" transform="translate(-11.456 -25.059)" fill="none" stroke="#623a1d" stroke-miterlimit="10" stroke-width="0.75"/>
      <line id="Line_722" data-name="Line 722" x1="156.83" y2="156.83" transform="translate(-15.028 -28.631)" fill="none" stroke="#623a1d" stroke-miterlimit="10" stroke-width="0.75"/>
      <line id="Line_723" data-name="Line 723" x1="156.83" y2="156.83" transform="translate(-18.602 -32.205)" fill="none" stroke="#623a1d" stroke-miterlimit="10" stroke-width="0.75"/>
      <line id="Line_724" data-name="Line 724" x1="156.83" y2="156.83" transform="translate(-22.175 -35.778)" fill="none" stroke="#623a1d" stroke-miterlimit="10" stroke-width="0.75"/>
      <line id="Line_725" data-name="Line 725" x1="156.829" y2="156.829" transform="translate(-25.747 -39.35)" fill="none" stroke="#623a1d" stroke-miterlimit="10" stroke-width="0.75"/>
      <line id="Line_726" data-name="Line 726" x1="156.83" y2="156.83" transform="translate(-29.321 -42.924)" fill="none" stroke="#623a1d" stroke-miterlimit="10" stroke-width="0.75"/>
      <line id="Line_727" data-name="Line 727" x1="156.829" y2="156.83" transform="translate(-32.894 -46.497)" fill="none" stroke="#623a1d" stroke-miterlimit="10" stroke-width="0.75"/>
      <line id="Line_728" data-name="Line 728" x1="156.829" y2="156.829" transform="translate(-36.466 -50.069)" fill="none" stroke="#623a1d" stroke-miterlimit="10" stroke-width="0.75"/>
      <line id="Line_729" data-name="Line 729" x1="156.83" y2="156.83" transform="translate(-40.04 -53.643)" fill="none" stroke="#623a1d" stroke-miterlimit="10" stroke-width="0.75"/>
      <line id="Line_730" data-name="Line 730" x1="156.829" y2="156.829" transform="translate(-43.613 -57.216)" fill="none" stroke="#623a1d" stroke-miterlimit="10" stroke-width="0.75"/>
      <line id="Line_731" data-name="Line 731" x1="156.83" y2="156.83" transform="translate(-47.186 -60.789)" fill="none" stroke="#623a1d" stroke-miterlimit="10" stroke-width="0.75"/>
      <line id="Line_732" data-name="Line 732" x1="156.83" y2="156.83" transform="translate(-50.759 -64.362)" fill="none" stroke="#623a1d" stroke-miterlimit="10" stroke-width="0.75"/>
      <line id="Line_733" data-name="Line 733" x1="156.83" y2="156.829" transform="translate(-54.333 -67.935)" fill="none" stroke="#623a1d" stroke-miterlimit="10" stroke-width="0.75"/>
      <line id="Line_734" data-name="Line 734" x1="156.83" y2="156.83" transform="translate(-57.905 -71.508)" fill="none" stroke="#623a1d" stroke-miterlimit="10" stroke-width="0.75"/>
      <line id="Line_735" data-name="Line 735" x1="156.829" y2="156.83" transform="translate(-61.478 -75.081)" fill="none" stroke="#623a1d" stroke-miterlimit="10" stroke-width="0.75"/>
      <line id="Line_736" data-name="Line 736" x1="156.83" y2="156.83" transform="translate(-65.052 -78.655)" fill="none" stroke="#623a1d" stroke-miterlimit="10" stroke-width="0.75"/>
      <line id="Line_737" data-name="Line 737" x1="156.83" y2="156.83" transform="translate(-68.624 -82.227)" fill="none" stroke="#623a1d" stroke-miterlimit="10" stroke-width="0.75"/>
    </g>
  </g>
  <g id="Group_7799" data-name="Group 7799" transform="translate(87.095 92.771)">
    <g id="Group_7798" data-name="Group 7798" clip-path="url(#clip-path-32)">
      <rect id="Rectangle_1665" data-name="Rectangle 1665" width="81.767" height="46.05" transform="translate(-1.785 0)" fill="url(#linear-gradient-30)"/>
    </g>
  </g>
  <g id="Group_7801" data-name="Group 7801" transform="translate(76.012 157.907)">
    <g id="Group_7800" data-name="Group 7800" clip-path="url(#clip-path-33)">
      <rect id="Rectangle_1666" data-name="Rectangle 1666" width="45.996" height="92.005" transform="translate(-6.198 18.604) rotate(-72.857)" fill="url(#linear-gradient-31)"/>
    </g>
  </g>
  <g id="Group_7803" data-name="Group 7803">
    <g id="Group_7802" data-name="Group 7802" clip-path="url(#clip-path-29)">
      <path id="Path_4118" data-name="Path 4118" d="M118.895,200.589c3.248-8.411.658-24.188.658-24.188.48,5.008,4.839,18.942,9.252,15.16s-1.416-13.207-3.772-14.872-5.076-1.914-5.721-.536-.916,3.534-2.248,7.067-4.646,9.557-8.461,8.125-3.761-4.986.633-11.325,10.077-4.747,10.077-4.747.364.344.208,2.342-3.29,17.809-6.038,22.973" transform="translate(-0.075 -0.124)" fill="none" stroke="#45a735" stroke-linecap="round" stroke-miterlimit="10" stroke-width="1.5"/>
      <path id="Path_4119" data-name="Path 4119" d="M172.533,212.191s3.67-9.229,9.992-10.805c0,0-9.757.951-11.287,10.226" transform="translate(-0.121 -0.142)" fill="none" stroke="#78b52e" stroke-linecap="round" stroke-linejoin="round" stroke-width="1"/>
    </g>
  </g>
  <g id="Group_7805" data-name="Group 7805" transform="translate(173.277 186.744)">
    <g id="Group_7804" data-name="Group 7804" clip-path="url(#clip-path-35)">
      <path id="Path_4120" data-name="Path 4120" d="M166.63,189.206l7.417,18.026,16.582-7.085-7.417-18.026Z" transform="translate(-173.395 -186.873)" fill="url(#linear-gradient-32)"/>
    </g>
  </g>
  <g id="Group_7807" data-name="Group 7807" transform="translate(173.674 187.23)">
    <g id="Group_7806" data-name="Group 7806" clip-path="url(#clip-path-36)">
      <path id="Path_4122" data-name="Path 4122" d="M190.2,200.162l-7.12-17.3-15.8,6.751,7.12,17.3Z" transform="translate(-173.792 -187.359)" fill="url(#linear-gradient-33)"/>
    </g>
  </g>
  <g id="Group_7809" data-name="Group 7809" transform="translate(182.14 196.444)">
    <g id="Group_7808" data-name="Group 7808" clip-path="url(#clip-path-37)">
      <path id="Path_4124" data-name="Path 4124" d="M191.687,192.187,177.848,198.1l5.365,13.039,13.839-5.913Z" transform="translate(-182.265 -196.58)" fill="url(#linear-gradient-34)"/>
    </g>
  </g>
  <g id="Group_7811" data-name="Group 7811" transform="translate(182.064 196.636)">
    <g id="Group_7810" data-name="Group 7810" clip-path="url(#clip-path-38)">
      <path id="Path_4126" data-name="Path 4126" d="M190.917,192.713,178,198.232l5.086,12.361L196,205.074Z" transform="translate(-182.189 -196.772)" fill="url(#linear-gradient-35)"/>
    </g>
  </g>
  <g id="Group_7813" data-name="Group 7813" transform="translate(173.03 199.414)">
    <g id="Group_7812" data-name="Group 7812" clip-path="url(#clip-path-39)">
      <path id="Path_4128" data-name="Path 4128" d="M180.978,196.123l-12.657,5.408,6.042,14.684,12.657-5.408Z" transform="translate(-173.149 -199.553)" fill="url(#linear-gradient-36)"/>
    </g>
  </g>
  <g id="Group_7815" data-name="Group 7815" transform="translate(173.452 199.347)">
    <g id="Group_7814" data-name="Group 7814" clip-path="url(#clip-path-40)">
      <path id="Path_4130" data-name="Path 4130" d="M180.981,196.241l-11.993,5.124,5.733,13.933,11.993-5.124Z" transform="translate(-173.572 -199.486)" fill="url(#linear-gradient-37)"/>
    </g>
  </g>
  <g id="Group_7817" data-name="Group 7817" transform="translate(167.771 192.348)">
    <g id="Group_7816" data-name="Group 7816" clip-path="url(#clip-path-41)">
      <path id="Path_4132" data-name="Path 4132" d="M179.718,187.181l-18.356,7.843L169.5,214.79l18.356-7.843Z" transform="translate(-167.885 -192.48)" fill="url(#linear-gradient-38)"/>
    </g>
  </g>
  <g id="Group_7819" data-name="Group 7819" transform="translate(168.462 193.235)">
    <g id="Group_7818" data-name="Group 7818" clip-path="url(#clip-path-42)">
      <path id="Path_4134" data-name="Path 4134" d="M179.58,188.456l-16.773,7.166,7.3,17.736,16.773-7.166Z" transform="translate(-168.577 -193.368)" fill="url(#linear-gradient-39)"/>
    </g>
  </g>
  <g id="Group_7821" data-name="Group 7821" transform="translate(179.7 188.672)">
    <g id="Group_7820" data-name="Group 7820" clip-path="url(#clip-path-43)">
      <path id="Path_4136" data-name="Path 4136" d="M191.5,183.494l-17.767,7.591,7.528,18.3,17.767-7.591Z" transform="translate(-179.823 -188.801)" fill="url(#linear-gradient-40)"/>
    </g>
  </g>
  <g id="Group_7823" data-name="Group 7823" transform="translate(180.169 189.055)">
    <g id="Group_7822" data-name="Group 7822" clip-path="url(#clip-path-44)">
      <path id="Path_4138" data-name="Path 4138" d="M190.563,184.52,174.5,191.384l7.064,17.168,16.064-6.863Z" transform="translate(-180.292 -189.186)" fill="url(#linear-gradient-41)"/>
    </g>
  </g>
  <g id="Group_7825" data-name="Group 7825" transform="translate(179.425 199.823)">
    <g id="Group_7824" data-name="Group 7824" clip-path="url(#clip-path-45)">
      <path id="Path_4140" data-name="Path 4140" d="M191.828,208.263l-4.742-11.525-10.962,4.683,4.742,11.525Z" transform="translate(-179.549 -199.962)" fill="url(#linear-gradient-42)"/>
    </g>
  </g>
  <g id="Group_7827" data-name="Group 7827" transform="translate(179.716 199.903)">
    <g id="Group_7826" data-name="Group 7826" clip-path="url(#clip-path-46)">
      <path id="Path_4142" data-name="Path 4142" d="M191.418,208.225l-4.6-11.177-10.372,4.432,4.6,11.177Z" transform="translate(-179.841 -200.042)" fill="url(#linear-gradient-43)"/>
    </g>
  </g>
  <g id="Group_7829" data-name="Group 7829" transform="translate(180.805 200.735)">
    <g id="Group_7828" data-name="Group 7828" clip-path="url(#clip-path-47)">
      <path id="Path_4144" data-name="Path 4144" d="M189.166,207.45l-3.545-8.616-7.483,3.2,3.545,8.616Z" transform="translate(-180.93 -200.876)" fill="url(#linear-gradient-44)"/>
    </g>
  </g>
  <g id="Group_7831" data-name="Group 7831" transform="translate(181.21 200.838)">
    <g id="Group_7830" data-name="Group 7830" clip-path="url(#clip-path-48)">
      <path id="Path_4146" data-name="Path 4146" d="M188.88,207.394l-3.391-8.241-6.914,2.954,3.391,8.241Z" transform="translate(-181.336 -200.979)" fill="url(#linear-gradient-45)"/>
    </g>
  </g>
  <g id="Group_7833" data-name="Group 7833">
    <g id="Group_7832" data-name="Group 7832" clip-path="url(#clip-path-29)">
      <path id="Path_4148" data-name="Path 4148" d="M180.938,198.831c-1.646.427-.609,3.387.97,2.853a1.509,1.509,0,0,0-.97-2.853" transform="translate(-0.127 -0.14)" fill="#ffe17f"/>
      <path id="Path_4149" data-name="Path 4149" d="M181.238,198.967c-1.169.3-.435,2.4.689,2.025a1.071,1.071,0,0,0-.689-2.025" transform="translate(-0.127 -0.14)" fill="#fff0c6"/>
    </g>
  </g>
  <g id="Group_7835" data-name="Group 7835" transform="translate(172.436 199.078)">
    <g id="Group_7834" data-name="Group 7834" clip-path="url(#clip-path-50)">
      <path id="Path_4150" data-name="Path 4150" d="M177.458,196.86l-6.175,2.638,1.626,3.953,6.175-2.638Z" transform="translate(-172.557 -199.217)" fill="url(#linear-gradient-46)"/>
    </g>
  </g>
  <g id="Group_7837" data-name="Group 7837" transform="translate(173.942 200.218)">
    <g id="Group_7836" data-name="Group 7836" clip-path="url(#clip-path-51)">
      <path id="Path_4152" data-name="Path 4152" d="M177.917,198.642l-5.867,2.507,2.557,6.215,5.867-2.507Z" transform="translate(-174.063 -200.358)" fill="url(#linear-gradient-47)"/>
    </g>
  </g>
  <g id="Group_7839" data-name="Group 7839" transform="translate(183.394 192.913)">
    <g id="Group_7838" data-name="Group 7838" clip-path="url(#clip-path-52)">
      <path id="Path_4154" data-name="Path 4154" d="M181.828,193.866l5.973-2.886,2.642,5.765-5.973,2.886Z" transform="translate(-183.523 -193.048)" fill="url(#linear-gradient-48)"/>
    </g>
  </g>
  <g id="Group_7841" data-name="Group 7841" transform="translate(183.608 196.803)">
    <g id="Group_7840" data-name="Group 7840" clip-path="url(#clip-path-53)">
      <path id="Path_4156" data-name="Path 4156" d="M183.25,197.176l6.038-2.917L191,198l-6.038,2.917Z" transform="translate(-183.738 -196.94)" fill="url(#linear-gradient-49)"/>
    </g>
  </g>
  <g id="Group_7843" data-name="Group 7843">
    <g id="Group_7842" data-name="Group 7842" clip-path="url(#clip-path-29)">
      <path id="Path_4158" data-name="Path 4158" d="M50.018,118.129s20.675,44.941,23.869,60.3c0,0,.013,2.308-3.823,1.776,0,0-12.995-46.541-22.421-60.374a2.865,2.865,0,0,1,2.375-1.7" transform="translate(-0.034 -0.083)" fill="#71a22f"/>
      <path id="Path_4159" data-name="Path 4159" d="M12.041,94.244c.72-2.257-11.726-10.761.935-19.285,12.886-8.67,29.845,25.886,28.549,29.366S8.8,125.564,1.73,112.6s9.812-16.78,10.312-18.351" transform="translate(0 -0.052)" fill="#8abb2a"/>
      <path id="Path_4160" data-name="Path 4160" d="M31.122,134.847c-2.258-.721-10.914,12.193-19.338-.776-8.566-13.193,26.27-31.024,29.749-29.725s20.978,33.519,7.9,40.944-16.736-9.946-18.308-10.443" transform="translate(-0.007 -0.074)" fill="#71a22f"/>
      <path id="Path_4161" data-name="Path 4161" d="M71.041,114.419c-.719,2.253,11.724,10.759-.939,19.28-12.883,8.672-29.843-25.88-28.547-29.362S74.28,83.1,81.348,96.064s-9.808,16.784-10.307,18.355" transform="translate(-0.029 -0.064)" fill="#8abb2a"/>
      <path id="Path_4162" data-name="Path 4162" d="M51.955,73.817c2.257.717,10.915-12.2,19.338.767,8.57,13.2-26.269,31.032-29.748,29.731s-20.976-33.524-7.9-40.945,16.737,9.947,18.307,10.447" transform="translate(-0.02 -0.043)" fill="#71a22f"/>
      <path id="Path_4163" data-name="Path 4163" d="M223.8,211.826s-49.469.026-64.751,3.55c0,0-2.1.953-.014,4.215,0,0,47.71-7.671,64.217-4.9a2.865,2.865,0,0,0,.549-2.868" transform="translate(-0.112 -0.149)" fill="#71a22f"/>
      <path id="Path_4164" data-name="Path 4164" d="M261.4,236.309c1.749-1.6,14.68,6.147,17.124-8.918,2.484-15.332-36-16.275-38.616-13.642s-5.6,38.609,9.141,39.605,11.132-15.935,12.351-17.045" transform="translate(-0.168 -0.15)" fill="#8abb2a"/>
      <path id="Path_4165" data-name="Path 4165" d="M216.536,235.965c1.6,1.751-6.508,15.015,8.8,17.239,15.566,2.26,17.187-36.84,14.552-39.456s-39.223-5.03-40.493,9.958,16.037,11.039,17.145,12.259" transform="translate(-0.141 -0.149)" fill="#71a22f"/>
      <path id="Path_4166" data-name="Path 4166" d="M218.39,191.158c-1.746,1.6-14.678-6.146-17.117,8.922-2.487,15.327,35.991,16.275,38.613,13.64s5.6-38.61-9.138-39.6-11.139,15.931-12.358,17.042" transform="translate(-0.142 -0.123)" fill="#8abb2a"/>
      <path id="Path_4167" data-name="Path 4167" d="M263.257,191.506c-1.6-1.75,6.511-15.017-8.791-17.242C238.9,172,237.273,211.107,239.911,213.722s39.225,5.024,40.493-9.959-16.039-11.04-17.148-12.257" transform="translate(-0.169 -0.123)" fill="#71a22f"/>
      <path id="Path_4168" data-name="Path 4168" d="M63.681,152.52c2.244-.768,5-.51,5.371,3.09s3.59,6.2,3.373,9.079S67.3,169.7,62.182,168.076s-4.872-13.376,1.5-15.556" transform="translate(-0.041 -0.107)" fill="#96999c"/>
      <path id="Path_4169" data-name="Path 4169" d="M64.118,152.082c2.244-.768,5-.509,5.371,3.09s3.59,6.2,3.373,9.079-5.121,5.011-10.243,3.388-4.872-13.375,1.5-15.556" transform="translate(-0.042 -0.107)" fill="#1a1818"/>
      <path id="Path_4170" data-name="Path 4170" d="M176.926,216.8c-.576-1.987.689-6.429,3.688-7.133s4.079.75,7.745.207,2.973,6.979-1.777,7.994-9.118.789-9.656-1.068" transform="translate(-0.125 -0.148)" fill="#96999c"/>
      <path id="Path_4171" data-name="Path 4171" d="M177.311,217.859c-.592-2.459.691-6.743,3.69-7.482s3.974.537,7.64-.034,3.076,7.569-1.675,8.633-9.183.845-9.655-1.117" transform="translate(-0.125 -0.148)" fill="#1a1818"/>
      <path id="Path_4172" data-name="Path 4172" d="M112.094,240.454a.663.663,0,0,1-.38-1.207,26.72,26.72,0,0,0,5.786-6.275.664.664,0,0,1,1.114.722,27.681,27.681,0,0,1-6.141,6.64.666.666,0,0,1-.38.119" transform="translate(-0.079 -0.164)" fill="#818386"/>
      <path id="Path_4173" data-name="Path 4173" d="M118.057,240.455a.671.671,0,0,1-.384-.121c-1.589-1.127-6.182-5.4-6.378-5.584a.664.664,0,0,1,.906-.97c.047.044,4.721,4.4,6.239,5.471a.662.662,0,0,1-.384,1.2" transform="translate(-0.078 -0.165)" fill="#818386"/>
    </g>
  </g>
</svg>
