<svg id="Group_7733" data-name="Group 7733" xmlns="http://www.w3.org/2000/svg" xmlns:xlink="http://www.w3.org/1999/xlink" width="163.714" height="204.844" viewBox="0 0 163.714 204.844">
  <defs>
    <clipPath id="clip-path">
      <rect id="Rectangle_1546" data-name="Rectangle 1546" width="163.714" height="204.844" fill="none"/>
    </clipPath>
    <clipPath id="clip-path-3">
      <path id="Path_3833" data-name="Path 3833" d="M28.214,114.288s2.6,1.076,3.19,1.305c0,0-3.835,23.2.643,40.3,0,0,20.856,5.413,51.715,3.834,14.861-.76,32.633-1.3,50.292-8.783,0,0,.766-25.77-1.465-35.584,0,0,.378.119.452.136,0,0,.294-15.949,5.692-24.608,0,0-5.975-4.558-12.2-6.25a7.782,7.782,0,0,0-4.114.663c-1.616.95-40.588,24.028-40.588,24.028L38.482,91.751,26.854,84.338s-.888,21.472,1.36,29.95" transform="translate(-26.681 -84.338)" fill="none"/>
    </clipPath>
    <linearGradient id="linear-gradient" x1="-0.238" y1="1.531" x2="-0.229" y2="1.531" gradientUnits="objectBoundingBox">
      <stop offset="0" stop-color="#fe0"/>
      <stop offset="0.05" stop-color="#ffee05"/>
      <stop offset="0.109" stop-color="#ffee13"/>
      <stop offset="0.174" stop-color="#fff02b"/>
      <stop offset="0.243" stop-color="#fff14d"/>
      <stop offset="0.313" stop-color="#fff378"/>
      <stop offset="0.325" stop-color="#fff481"/>
      <stop offset="0.513" stop-color="#fff25f"/>
      <stop offset="0.84" stop-color="#ffef29"/>
      <stop offset="1" stop-color="#ffef15"/>
    </linearGradient>
    <clipPath id="clip-path-5">
      <path id="Path_3835" data-name="Path 3835" d="M28.214,114.288s2.6,1.076,3.19,1.305c0,0-3.835,23.2.643,40.3a22.907,22.907,0,0,0,13.54,4.948c-4.744-26.481-2.338-55.077-.061-66.233l-8.068-4.755-10.6-5.513s-.888,21.472,1.36,29.95" transform="translate(-26.681 -84.338)" fill="none"/>
    </clipPath>
    <linearGradient id="linear-gradient-2" x1="-1.367" y1="1.54" x2="-1.314" y2="1.54" gradientUnits="objectBoundingBox">
      <stop offset="0" stop-color="#00a1b9"/>
      <stop offset="0.3" stop-color="#02a2b9"/>
      <stop offset="0.512" stop-color="#0ca5bc"/>
      <stop offset="0.697" stop-color="#1babc1"/>
      <stop offset="0.866" stop-color="#31b3c7"/>
      <stop offset="1" stop-color="#49bdcf"/>
    </linearGradient>
    <clipPath id="clip-path-6">
      <path id="Path_3836" data-name="Path 3836" d="M119.636,85.29c-.343.2-2.377,1.4-5.364,3.173,1.28,6.676,2.773,30.068,1.38,67.138a54.827,54.827,0,0,0,15.62-4.668s.766-25.77-1.465-35.584c0,0,.378.119.452.136,0,0,.294-15.949,5.692-24.608,0,0-5.975-4.558-12.2-6.25a8.554,8.554,0,0,0-.888-.041,6.671,6.671,0,0,0-3.225.7" transform="translate(-114.272 -84.585)" fill="none"/>
    </clipPath>
    <linearGradient id="linear-gradient-3" x1="-5.438" y1="1.656" x2="-5.391" y2="1.656" xlink:href="#linear-gradient-2"/>
    <clipPath id="clip-path-8">
      <rect id="Rectangle_1536" data-name="Rectangle 1536" width="102.397" height="34.052" fill="none"/>
    </clipPath>
    <clipPath id="clip-path-9">
      <path id="Path_3840" data-name="Path 3840" d="M85.163,156.418c-41.942,1.741-54.1-6.329-54.1-6.329a42.044,42.044,0,0,0,3.917,11.954A46.419,46.419,0,0,0,57.3,178.474c25.869,6.42,52.636-2.157,52.636-2.157,17.52-8.509,21.9-17.643,21.9-17.643a35.222,35.222,0,0,0,2.129-11.871c-9.737,4.451-17,8.3-48.8,9.616" transform="translate(-31.06 -146.802)" fill="none"/>
    </clipPath>
    <linearGradient id="linear-gradient-4" x1="-0.311" y1="1.401" x2="-0.301" y2="1.401" gradientUnits="objectBoundingBox">
      <stop offset="0" stop-color="#313133"/>
      <stop offset="0.124" stop-color="#464649"/>
      <stop offset="0.264" stop-color="#5a5b5e"/>
      <stop offset="1" stop-color="#313133"/>
    </linearGradient>
    <clipPath id="clip-path-10">
      <path id="Path_3841" data-name="Path 3841" d="M34.977,161.942c1.454,2.636,7.509,8.25,9.45,9.587-.91-1.394-2.681-15.7-2.717-17.877-7.765-1.76-10.65-3.664-10.65-3.664a42.044,42.044,0,0,0,3.917,11.954" transform="translate(-31.06 -149.988)" fill="none"/>
    </clipPath>
    <linearGradient id="linear-gradient-5" x1="-2.398" y1="2.325" x2="-2.32" y2="2.325" gradientUnits="objectBoundingBox">
      <stop offset="0" stop-color="#96999c"/>
      <stop offset="0.616" stop-color="#6e6f72"/>
      <stop offset="1" stop-color="#5a5b5e"/>
    </linearGradient>
    <clipPath id="clip-path-11">
      <path id="Path_3842" data-name="Path 3842" d="M120.149,151.337a124.518,124.518,0,0,1,1,16.152,35.318,35.318,0,0,0,4.5-4.015,18.061,18.061,0,0,0,3.364-4.8,35.222,35.222,0,0,0,2.129-11.871,97.07,97.07,0,0,1-10.987,4.535" transform="translate(-120.149 -146.802)" fill="none"/>
    </clipPath>
    <linearGradient id="linear-gradient-6" x1="-11.097" y1="2.58" x2="-11.005" y2="2.58" gradientUnits="objectBoundingBox">
      <stop offset="0" stop-color="#5a5b5e"/>
      <stop offset="0.234" stop-color="#5e6063"/>
      <stop offset="0.514" stop-color="#6d6e71"/>
      <stop offset="0.818" stop-color="#848689"/>
      <stop offset="1" stop-color="#96999c"/>
    </linearGradient>
    <clipPath id="clip-path-13">
      <path id="Path_3861" data-name="Path 3861" d="M54.073,19.07c-6.927,6.661-16.518,16.735-16.251,21.59.029.535.355,1.018,1.331,1.5s1.758-.4,2.344-.98,8.1-10.658,13.4-13.944,12.942-4.483,24.176-3.95,24.181,1.656,27.735,3.059,6.02,3.568,8.676,6.931c7.122,9.023,7.681,8.887,8.614,8.883h.215c.884,0,1.873.006,1.873-.98,0-1.066-10.589-20.914-24.566-23.178-7.813-1.266-19.588-2.865-29.66-2.865-7.945,0-14.829.994-17.883,3.931" transform="translate(-37.817 -15.139)" fill="none"/>
    </clipPath>
    <linearGradient id="linear-gradient-7" x1="-0.437" y1="6.879" x2="-0.426" y2="6.879" xlink:href="#linear-gradient-5"/>
    <clipPath id="clip-path-15">
      <path id="Path_3863" data-name="Path 3863" d="M57.206,7.476c-1.786.895-2.753,1.955-2.452,2.842s-3,7.548-5.753,10.924-5.236,5.1-6.847,5.537-5.5,13.766-4.7,13.913S41.887,36.409,45,32.431c4.562-5.843,11.748-11.493,20.133-12.748,7.321-1.1,27.635-1.1,40.078,2.125,7.875,2.039,13.114,9.564,15.841,13.586,3.166,4.674,4.476,6.416,5.054,6.15s.762-1.856-.476-7.549c-1.354-6.212-1.668-7.078-3.622-7.416s-4.738-4.617-6.664-10.132c-1.242-3.564,1.6-3.2-.232-5.3C111.205,6.668,102.5,1.756,84.25,1.3c-.68-.017-1.341-.025-1.989-.025-15.975,0-22.527,4.934-25.054,6.2" transform="translate(-37.35 -1.279)" fill="none"/>
    </clipPath>
    <linearGradient id="linear-gradient-8" x1="-0.42" y1="5.021" x2="-0.408" y2="5.021" gradientUnits="objectBoundingBox">
      <stop offset="0" stop-color="#fe0"/>
      <stop offset="0.333" stop-color="#ffe100"/>
      <stop offset="1" stop-color="#ffcd00"/>
    </linearGradient>
  </defs>
  <g id="Group_7529" data-name="Group 7529" clip-path="url(#clip-path)">
    <g id="Group_7499" data-name="Group 7499">
      <g id="Group_7498" data-name="Group 7498" clip-path="url(#clip-path)">
        <path id="Path_3821" data-name="Path 3821" d="M45.462,27.823s-13.743-3.182-14.84-9.554c-.387-2.259.613-9.614,6.389-14.889S48.791.18,50.591,1.8c2.446,2.215,4.872,14.546,4.872,14.546s.891,12.278-10,11.474" transform="translate(0.97 0)" fill="#1a1818"/>
        <path id="Path_3822" data-name="Path 3822" d="M109.847,17.037S116.9,6.98,120.981,5.758a8.726,8.726,0,0,1,7.408.982c5.043,3.81,5.84,14.938,3.3,17.652-2.905,3.1-16.531,3.444-18.572,2.555s-3.267-9.91-3.267-9.91" transform="translate(3.488 0.17)" fill="#1a1818"/>
        <path id="Path_3823" data-name="Path 3823" d="M33.323,95.082s1.395-28.492,6.944-51.82S51.151,15,59.7,10.492c9.767-5.157,39.979-4.436,50.84,2.329,11.73,7.3,10.656,16.674,13.5,36.565s.018,38.048-.621,43-40.63,26.028-40.63,26.028S34.272,99.325,33.323,95.082" transform="translate(1.058 0.226)" fill="#1a1818"/>
        <path id="Path_3824" data-name="Path 3824" d="M118.775,84.135s8.4,6.35,11.269,16.751c1.564,5.673,7.43,41.478.63,57.887-6.888,16.624-18.686,20.587-42.666,23.2-26.574,2.9-41.486-4.961-47.052-11.741C28.79,155.409,27.543,130.788,32.8,107.985c2.438-10.567,6-14.79,7.163-15.482Z" transform="translate(0.948 2.672)" fill="#1a1818"/>
        <path id="Path_3825" data-name="Path 3825" d="M36.73,160.979s-3.357,11.133-3.446,17.707c-.1,7.141.218,8.39.317,11.584,0,0-.512,1.095-3.16,1.967-4.393,1.44-7.035,2.129-7.189,2.469s2.671.643,2.519.985A3.642,3.642,0,0,0,25.746,197s3.5-.072,3.182.336-.242,1.4.212,1.366a94.514,94.514,0,0,1,11.483-.845c3.924.155,4.378-.555,4.616-1.865a37.317,37.317,0,0,1,4.344-11.589c2.865-4.709,4.244-4.042,8.965-7.638,2.921-2.23-21.818-15.788-21.818-15.788" transform="translate(0.738 5.112)" fill="#1a1818"/>
        <path id="Path_3826" data-name="Path 3826" d="M127.834,157.082s4.548,13.146,4.878,19.268c.45,8.292-1.047,15.654-.916,16.442s8.8,1.6,8.959,2.357c0,0-2.931,1.116-2.611,1.295a3.534,3.534,0,0,1,1.346,1.1s-2.251.546-3.085.874-.012.927-.365,1.3-2.125-.145-8.563-.157c-7.776-.011-8.056-1.321-8.2-3.122-.085-1.082-1.668-5.624-4.387-11.4-1.82-3.846-5.95-7.775-8.782-11.335,0,0,5.4-7.37,21.728-16.621" transform="translate(3.37 4.988)" fill="#1a1818"/>
        <path id="Path_3827" data-name="Path 3827" d="M.278,60.732a20.2,20.2,0,0,0-.115,6.013c.727,6,2.015,19.314,6.4,27.636,9.2,17.466,26.445,22.529,29.687,22.756,0,0,17.717-20.048-1.442-28.335C15.018,80.249,13.608,69.438,13.1,63.679a22.589,22.589,0,0,0-.7-4.56s-1.88,3.565-2.446,3.359-.8-4.3-.639-4.949S7.669,58.878,6.734,60.4c-.371.61-.456.939-.514.968a5.426,5.426,0,0,1-.212-1.861c-.059-1.083.051-1.425-.083-1.419s-.408.2-.8.678A7,7,0,0,0,3.9,61.627a8.585,8.585,0,0,1-.808-2.7C2.99,58.42,1.936,61.342,2,62.559a7.385,7.385,0,0,1-.826-1.095c-.609-.876-.9-.732-.9-.732" transform="translate(0 1.823)" fill="#1a1818"/>
        <path id="Path_3828" data-name="Path 3828" d="M121.687,58.585s1.477,4.85,11.394,9.443c0,0-6.408,3.577-5.681,5.947s9.639,7.41,9.639,7.41-12.956,1.151-15.478,5.556Z" transform="translate(3.86 1.86)" fill="#1a1818"/>
        <path id="Path_3829" data-name="Path 3829" d="M121.687,58.585s1.477,4.85,11.394,9.443c0,0-6.408,3.577-5.681,5.947s9.639,7.41,9.639,7.41-12.956,1.151-15.478,5.556Z" transform="translate(3.86 1.86)" fill="none" stroke="#1a1818" stroke-linecap="round" stroke-linejoin="round" stroke-width="0.725"/>
        <path id="Path_3830" data-name="Path 3830" d="M37.43,62.145s-5.267,4.929-11.768,6.17c0,0,6.745,4.01,5.3,6-3.451,4.75-6.587,5.77-6.587,5.77s6.178,1.652,13.648,13.115Z" transform="translate(0.774 1.974)" fill="#1a1818"/>
        <path id="Path_3831" data-name="Path 3831" d="M37.43,62.145s-5.267,4.929-11.768,6.17c0,0,6.745,4.01,5.3,6-3.451,4.75-6.587,5.77-6.587,5.77s6.178,1.652,13.648,13.115Z" transform="translate(0.774 1.974)" fill="none" stroke="#1a1818" stroke-linecap="round" stroke-linejoin="round" stroke-width="0.725"/>
        <path id="Path_3832" data-name="Path 3832" d="M159.965,134.054a20.108,20.108,0,0,0-1.133-5.909c-1.95-5.719-3.231-14.5-11.959-26.639-8.167-11.364-23.423-18.215-26.516-17.215,0,0-9.436,22.926,9.81,31.027,6.662,2.8,14.958,12.966,16.643,18.493a22.533,22.533,0,0,0,1.624,4.319s1.1-3.872,1.7-3.793,1.675,4.043,1.65,4.71,1.336-1.656,1.932-3.34c.238-.672.255-1.01.306-1.052a5.622,5.622,0,0,1,.593,1.777c.28,1.049.246,1.405.375,1.369s.353-.274.637-.824a7.073,7.073,0,0,0,.617-3.053,8.723,8.723,0,0,1,1.345,2.475c.206.475.629-2.6.315-3.775a7.663,7.663,0,0,1,1.034.9c.772.733,1.03.531,1.03.531" transform="translate(3.749 2.674)" fill="#1a1818"/>
      </g>
    </g>
    <g id="Group_7501" data-name="Group 7501" transform="translate(27.529 87.016)">
      <g id="Group_7500" data-name="Group 7500" clip-path="url(#clip-path-3)">
        <rect id="Rectangle_1532" data-name="Rectangle 1532" width="112.767" height="76.965" transform="translate(-0.715)" fill="url(#linear-gradient)"/>
      </g>
    </g>
    <g id="Group_7503" data-name="Group 7503">
      <g id="Group_7502" data-name="Group 7502" clip-path="url(#clip-path)">
        <path id="Path_3834" data-name="Path 3834" d="M90.8,123.427c-1.139.124-2.226.185-5.232.267l-1.416.042s-.047,1.109-.039,2.449l.935-.028c2.2-.062,2.946,1.027,3.089,2.822l.206,2.868c.249-.031,2.295-.094,2.541-.069-.148-2-.183-6.337-.085-8.352m-7.351,17.387c-.135-1.516-.422-14.268-.42-14.6-.006-1.333.04-2.445.04-2.445L78.2,123.9s.11,1.106.181,2.443c.2,3.831.467,13.079.413,14.594-.025,1.214-.468,1.932-1.861,1.973l-1.49.042.07,2.441s3.681-.164,5.73-.221c2.076-.059,5.737-.1,5.737-.1l-.067-2.443-1.583.045c-1.426.043-1.788-.69-1.884-1.864m-6.171-14.435c-.07-1.343-.186-2.442-.186-2.442l-1.35.037c-2.759.078-4.215.087-5.3.026.215,2,.429,6.333.392,8.347.28-.039,2.352-.1,2.6-.072l.045-2.883c.039-1.794.722-2.929,2.921-2.991Z" transform="translate(2.237 3.92)" fill="#ef5713"/>
      </g>
    </g>
    <g id="Group_7505" data-name="Group 7505" transform="translate(27.529 87.016)">
      <g id="Group_7504" data-name="Group 7504" clip-path="url(#clip-path-5)">
        <rect id="Rectangle_1534" data-name="Rectangle 1534" width="19.621" height="76.501" transform="translate(-0.715 0)" fill="url(#linear-gradient-2)"/>
      </g>
    </g>
    <g id="Group_7507" data-name="Group 7507" transform="translate(117.901 87.271)">
      <g id="Group_7506" data-name="Group 7506" clip-path="url(#clip-path-6)">
        <rect id="Rectangle_1535" data-name="Rectangle 1535" width="21.679" height="71.016" transform="translate(0 0)" fill="url(#linear-gradient-3)"/>
      </g>
    </g>
    <g id="Group_7512" data-name="Group 7512">
      <g id="Group_7511" data-name="Group 7511" clip-path="url(#clip-path)">
        <path id="Path_3837" data-name="Path 3837" d="M113.882,89.9a569.521,569.521,0,0,1,.681,66.153l2.224.108a569.182,569.182,0,0,0-.768-67.541c-.713.4-1.427.834-2.138,1.279" transform="translate(3.617 2.814)" fill="#818386"/>
        <path id="Path_3838" data-name="Path 3838" d="M45.941,95.7c-.677-.436-1.354-.872-2.032-1.248-2.212,11.8-4.844,34.853-.02,64.961l2.2-.353c-4.67-29.136-2.287-51.543-.15-63.36" transform="translate(1.308 2.999)" fill="#818386"/>
        <g id="Group_7510" data-name="Group 7510" transform="translate(32.304 151.038)" style="mix-blend-mode: multiply;isolation: isolate">
          <g id="Group_7509" data-name="Group 7509">
            <g id="Group_7508" data-name="Group 7508" clip-path="url(#clip-path-8)">
              <path id="Path_3839" data-name="Path 3839" d="M31.31,149.67s12.1,8.068,53.835,6.332c31.645-1.318,38.871-5.162,48.559-9.613a35.382,35.382,0,0,1-2.116,11.872s-16.265,15.492-21.795,17.641c0,0-26.633,8.574-52.373,2.153,0,0-20.7-11.417-22.211-16.433a42.165,42.165,0,0,1-3.9-11.953" transform="translate(-31.31 -146.389)" fill="#96999c"/>
            </g>
          </g>
        </g>
      </g>
    </g>
    <g id="Group_7514" data-name="Group 7514" transform="translate(32.046 151.464)">
      <g id="Group_7513" data-name="Group 7513" clip-path="url(#clip-path-9)">
        <rect id="Rectangle_1538" data-name="Rectangle 1538" width="103.089" height="38.091" transform="translate(0)" fill="url(#linear-gradient-4)"/>
      </g>
    </g>
    <g id="Group_7516" data-name="Group 7516" transform="translate(32.046 154.751)">
      <g id="Group_7515" data-name="Group 7515" clip-path="url(#clip-path-10)">
        <rect id="Rectangle_1539" data-name="Rectangle 1539" width="13.366" height="21.541" fill="url(#linear-gradient-5)"/>
      </g>
    </g>
    <g id="Group_7518" data-name="Group 7518" transform="translate(123.965 151.464)">
      <g id="Group_7517" data-name="Group 7517" clip-path="url(#clip-path-11)">
        <rect id="Rectangle_1540" data-name="Rectangle 1540" width="11.171" height="20.687" transform="translate(0)" fill="url(#linear-gradient-6)"/>
      </g>
    </g>
    <g id="Group_7520" data-name="Group 7520">
      <g id="Group_7519" data-name="Group 7519" clip-path="url(#clip-path)">
        <path id="Path_3843" data-name="Path 3843" d="M51.923,36.938a13.772,13.772,0,0,1,8.806-3.051c4.971.008,8.206,2.862,8.666,3.734,0,0-2.507,3.414-8.815,3.4-4.443,0-7.842-2.448-8.656-4.087" transform="translate(1.649 1.076)" fill="#fff"/>
        <path id="Path_3844" data-name="Path 3844" d="M61.541,33.322a2.233,2.233,0,0,0-1.282.462c.6.025,1.085.7,1.1,1.538.011.858-.481,1.562-1.1,1.571s-1.128-.683-1.14-1.541a.37.37,0,0,1,0-.05,5.144,5.144,0,0,0-.387,2.036c.03,2.2,1.332,3.961,2.91,3.939s2.832-1.819,2.8-4.016-1.33-3.961-2.906-3.94" transform="translate(1.865 1.058)" fill="#070202"/>
        <path id="Path_3845" data-name="Path 3845" d="M106.388,36.209A13.771,13.771,0,0,0,97.5,33.4c-4.968.141-8.126,3.082-8.563,3.964,0,0,2.6,3.345,8.9,3.169,4.44-.124,7.773-2.659,8.543-4.319" transform="translate(2.824 1.06)" fill="#fff"/>
        <path id="Path_3846" data-name="Path 3846" d="M96.316,32.856a2.242,2.242,0,0,0-1.285.463c.6.025,1.086.7,1.1,1.537.012.858-.48,1.563-1.095,1.571s-1.127-.682-1.139-1.541c0-.018,0-.033,0-.05a5.169,5.169,0,0,0-.385,2.036c.03,2.2,1.331,3.961,2.91,3.939s2.83-1.819,2.8-4.016-1.33-3.961-2.906-3.94" transform="translate(2.97 1.043)" fill="#070202"/>
        <path id="Path_3847" data-name="Path 3847" d="M38.2,90.47l-.089.355s5.719,4.308,23.086,16.1c11.031,7.491,18.121,11.6,20.356,12.141a106.407,106.407,0,0,0,15.843-11.09c15.682-12.816,18.255-16.892,24.875-22.433a1.229,1.229,0,0,0-.212-.271s-37.74,18.256-41.646,19.024c0,0-11.866-3.4-42.212-13.821" transform="translate(1.21 2.708)" fill="#fff"/>
        <path id="Path_3848" data-name="Path 3848" d="M79.838,47.348C66.254,46.9,63.294,53.717,63.016,62.233c-.509,15.54,9.963,22.055,15.6,22.24S95.139,78.842,95.648,63.3c.281-8.515-2.224-15.508-15.81-15.954" transform="translate(2.001 1.503)" fill="#8f5430"/>
        <path id="Path_3849" data-name="Path 3849" d="M78.323,70.735a.986.986,0,0,1-.862-1.085l.474-14.45a.907.907,0,1,1,1.789.058l-.473,14.45a.989.989,0,0,1-.929,1.028" transform="translate(2.46 1.72)" fill="#070202"/>
        <path id="Path_3850" data-name="Path 3850" d="M74.622,53.234l4.2,5.122,4.523-4.837Z" transform="translate(2.37 1.691)" fill="#070202"/>
        <path id="Path_3851" data-name="Path 3851" d="M78.816,59.635h0a1.243,1.243,0,0,1-.92-.453l-4.2-5.124a1.244,1.244,0,0,1,1-2.028l8.716.287a1.243,1.243,0,0,1,.869,2.088l-4.525,4.838a1.24,1.24,0,0,1-.946.392M77.355,54.6l1.564,1.908,1.683-1.8Z" transform="translate(2.332 1.652)" fill="#070202"/>
        <path id="Path_3852" data-name="Path 3852" d="M78.533,64.362c4.329.183,7.225.408,5.8,4.227-1.052,2.817-3.261,5.154-6.1,4.978-2.651-.163-4.691-2.539-5.469-5.551s1.352-3.839,5.772-3.654" transform="translate(2.306 2.043)" fill="#fff"/>
        <path id="Path_3853" data-name="Path 3853" d="M78.366,74.814l-.174-.009c-3.021-.186-5.594-2.719-6.558-6.451a3.872,3.872,0,0,1,.5-3.537c1-1.253,2.858-1.742,6.2-1.631l.289.011c2.916.122,5.668.239,6.82,1.972.649.976.667,2.245.059,3.876-1.366,3.658-4.1,5.868-7.133,5.769m-.113-9.225c-2.944-.1-3.93.344-4.239.73a1.706,1.706,0,0,0-.052,1.433c.7,2.7,2.418,4.53,4.379,4.653l.105,0c2.351.078,4.021-2.12,4.8-4.2.3-.81.372-1.432.19-1.705-.475-.712-3.043-.82-4.919-.9Z" transform="translate(2.269 2.006)" fill="#090303"/>
        <path id="Path_3854" data-name="Path 3854" d="M18.121,64.84a4.435,4.435,0,0,1,2.676-2.1,11.72,11.72,0,0,1,3.546-.551c.258-.158,2.773-1.665,3.192-1.573s1,.351.935.931a12.854,12.854,0,0,1-3.417,4c-.9.452-5.03.645-5.03.645s-2.415-.447-1.9-1.354" transform="translate(0.573 1.925)" fill="#464749"/>
        <path id="Path_3855" data-name="Path 3855" d="M28.027,60.8c-.49.27-1.007.568-1.487.874a7.567,7.567,0,0,1-4.048,1.562,7.581,7.581,0,0,0-4,2.427,5.547,5.547,0,0,0,1.519.525s4.127-.194,5.03-.645a12.9,12.9,0,0,0,3.418-4,.742.742,0,0,0-.43-.745" transform="translate(0.587 1.931)" fill="#313133"/>
        <path id="Path_3856" data-name="Path 3856" d="M140.448,64.28s-6.188-2.853-6.7-6.164.258-4.085.473-4.557-5.065.129-5.155.988-.091,5.2,2.016,8,9.37,6.973,9.37,6.973Z" transform="translate(4.098 1.696)" fill="#313133"/>
        <path id="Path_3857" data-name="Path 3857" d="M50.346,30.559s-9.012,20.637-12.5,23.15c0,0-1.4-.132-.481-3.614s1.3-4.2,2.077-4.451,4.5-8.814,5.036-10.961,4.2-4.442,5.873-4.123" transform="translate(1.176 0.969)" fill="#464749"/>
        <path id="Path_3858" data-name="Path 3858" d="M38.809,51.5s-7.663,11.9-15.4,13.577-7.351.919-7.351.919,1.29,6.606,3.353,7.1S29.946,67.87,33.872,62.588s6.044-11.83,6.173-13.894-1.236,2.8-1.236,2.8" transform="translate(0.51 1.53)" fill="#464749"/>
        <path id="Path_3859" data-name="Path 3859" d="M109.847,29.059s9.013,20.637,12.506,23.15c0,0,1.4-.132.482-3.614s-1.3-4.2-2.078-4.451-4.5-8.814-5.036-10.961-4.2-4.442-5.874-4.123" transform="translate(3.488 0.922)" fill="#464749"/>
        <path id="Path_3860" data-name="Path 3860" d="M121.714,50s7.663,11.9,15.4,13.577,7.351.919,7.351.919-1.29,6.606-3.353,7.1-10.535-5.224-14.462-10.505-6.044-11.83-6.173-13.894,1.236,2.8,1.236,2.8" transform="translate(3.826 1.483)" fill="#464749"/>
      </g>
    </g>
    <g id="Group_7522" data-name="Group 7522" transform="translate(39.018 15.62)">
      <g id="Group_7521" data-name="Group 7521" clip-path="url(#clip-path-13)">
        <rect id="Rectangle_1542" data-name="Rectangle 1542" width="88.628" height="27.509" transform="translate(-0.262 0)" fill="url(#linear-gradient-7)"/>
      </g>
    </g>
    <g id="Group_7524" data-name="Group 7524">
      <g id="Group_7523" data-name="Group 7523" clip-path="url(#clip-path)">
        <path id="Path_3862" data-name="Path 3862" d="M84.251,2.307c20.112,1.043,29.872,7.223,30.855,9.837s-1.009,1.742.233,5.306c1.925,5.515,4.711,9.793,6.663,10.132s2.269,1.2,3.622,7.416c1.239,5.692,1.057,7.282.476,7.548s-1.887-1.477-5.054-6.149c-2.727-4.023-7.966-11.547-15.841-13.587-12.443-3.222-32.756-3.222-40.077-2.126C56.743,21.939,49.559,27.59,45,33.434c-3.109,3.978-6.739,8.409-7.538,8.262s3.086-13.478,4.7-13.915S46.248,25.619,49,22.245s6.052-10.035,5.752-10.923.668-1.948,2.452-2.842C59.836,7.164,66.84,1.4,84.251,2.307" transform="translate(1.186 0.07)" fill="#f08b25"/>
      </g>
    </g>
    <g id="Group_7526" data-name="Group 7526" transform="translate(38.536 1.32)">
      <g id="Group_7525" data-name="Group 7525" clip-path="url(#clip-path-15)">
        <rect id="Rectangle_1544" data-name="Rectangle 1544" width="90.204" height="40.532" transform="translate(-0.692 0)" fill="url(#linear-gradient-8)"/>
      </g>
    </g>
    <g id="Group_7528" data-name="Group 7528">
      <g id="Group_7527" data-name="Group 7527" clip-path="url(#clip-path)">
        <path id="Path_3864" data-name="Path 3864" d="M80.315,6.51c3.07.208,4.265,5.663,3.374,7.51s-2.072,2.425-3.374,2.425a4.225,4.225,0,0,1-3.838-2.692c-.43-1.165.067-7.5,3.838-7.243" transform="translate(2.425 0.206)" fill="#f08b25"/>
        <path id="Path_3865" data-name="Path 3865" d="M80.262,8.124c2.459.174,3.416,4.714,2.7,6.253a2.873,2.873,0,0,1-2.7,2.017,3.4,3.4,0,0,1-3.074-2.241c-.345-.97.053-6.242,3.074-6.03" transform="translate(2.448 0.258)" fill="#6d6f72"/>
        <path id="Path_3866" data-name="Path 3866" d="M80.262,10.409c2.459.125,3.416,3.372,2.7,4.47a2.981,2.981,0,0,1-2.7,1.442,3.451,3.451,0,0,1-3.074-1.6c-.345-.693.053-4.462,3.074-4.311" transform="translate(2.448 0.33)" fill="#1a1818"/>
        <path id="Path_3867" data-name="Path 3867" d="M94.888,7.842c3.071.207,4.265,5.662,3.374,7.51s-2.072,2.425-3.374,2.425a4.228,4.228,0,0,1-3.839-2.692c-.429-1.165.068-7.5,3.839-7.243" transform="translate(2.887 0.249)" fill="#f08b25"/>
        <path id="Path_3868" data-name="Path 3868" d="M94.646,9.456c2.627.173,3.649,4.714,2.886,6.252a3.064,3.064,0,0,1-2.886,2.018,3.609,3.609,0,0,1-3.284-2.241c-.366-.97.057-6.243,3.284-6.03" transform="translate(2.898 0.3)" fill="#6d6f72"/>
        <path id="Path_3869" data-name="Path 3869" d="M94.154,11.741c1.931.124,2.685,3.371,2.123,4.47a2.256,2.256,0,0,1-2.123,1.442,3.522,3.522,0,0,1-2.416-1.6c-.27-.693.042-4.463,2.416-4.311" transform="translate(2.911 0.373)" fill="#1a1818"/>
        <path id="Path_3870" data-name="Path 3870" d="M67.129,7.842c-3.071.207-4.265,5.662-3.374,7.51s2.072,2.425,3.374,2.425a4.228,4.228,0,0,0,3.839-2.692c.429-1.165-.068-7.5-3.839-7.243" transform="translate(2.016 0.249)" fill="#f08b25"/>
        <path id="Path_3871" data-name="Path 3871" d="M67.335,9.456c-2.627.173-3.649,4.714-2.886,6.252a3.064,3.064,0,0,0,2.886,2.018,3.609,3.609,0,0,0,3.284-2.241c.366-.97-.057-6.243-3.284-6.03" transform="translate(2.039 0.3)" fill="#6d6f72"/>
        <path id="Path_3872" data-name="Path 3872" d="M67.775,11.741c-1.931.124-2.685,3.371-2.123,4.47a2.256,2.256,0,0,0,2.123,1.442,3.522,3.522,0,0,0,2.416-1.6c.27-.693-.042-4.463-2.416-4.311" transform="translate(2.079 0.373)" fill="#1a1818"/>
        <path id="Path_3873" data-name="Path 3873" d="M140.119,62.543c.821-.419,4.449.724,6.512,1.176s2.967.645,3.031,1.806-1.225,8.125-2.064,8.512-.839.6-1.806.429-7.58-2.647-7.673-3.344.258-7.691,2-8.579" transform="translate(4.386 1.983)" fill="#6d6f72"/>
        <path id="Path_3874" data-name="Path 3874" d="M139.69,63.938c1.614-.119,7.266,1.474,7.653,2.183s-.839,8.081-1.548,8.3-7.421-2.57-7.674-3.343.474-7.056,1.569-7.137" transform="translate(4.385 2.03)" fill="#313133"/>
        <path id="Path_3875" data-name="Path 3875" d="M147.846,66.695s.945-.688,1.117-.473-1.271,7.394-1.818,7.78-.8.258-.246-1.5.691-5.631.946-5.8" transform="translate(4.655 2.102)" fill="#313133"/>
        <path id="Path_3876" data-name="Path 3876" d="M23.851,63.862c.363-.721,4.826-3.485,5.5-3.224s.559.833.559,1.556.274,3.646.008,4.162-4.051,3.868-4.393,3.74-.56-2.065-.9-3.439-1.086-2.176-.774-2.8" transform="translate(0.755 1.925)" fill="#313133"/>
        <path id="Path_3877" data-name="Path 3877" d="M29.283,60.631c-.841-.108-5.079,2.527-5.434,3.23a.579.579,0,0,0-.024.083c2.311-.264,4.42-1.224,5.458-3.313" transform="translate(0.757 1.925)" fill="#464749"/>
        <path id="Path_3878" data-name="Path 3878" d="M25.015,64.786c-.051-.192,2.666-1.1,3.869-2.107a18.918,18.918,0,0,1,.409,3.611,7.209,7.209,0,0,1-3.311,2.923s-.472-2.558-.967-4.427" transform="translate(0.794 1.99)" fill="#464749"/>
      </g>
    </g>
  </g>
</svg>
